<svg width="108" height="34" viewBox="0 0 108 34" fill="none" xmlns="http://www.w3.org/2000/svg">
<g clip-path="url(#clip0_1630_8507)">
<path d="M15.2942 9.75051C15.1725 9.72303 15.0604 9.66325 14.9697 9.57745C14.8791 9.49165 14.8132 9.38301 14.7791 9.26295C14.7143 9.00634 14.7143 8.73765 14.7791 8.48104C15.0183 7.14716 15.239 5.80868 15.5472 4.4886C15.7627 3.40339 16.191 2.37163 16.8075 1.4529C17.2738 0.784658 17.956 0.297382 18.7393 0.0730259C20.0824 -0.262743 20.6389 1.04812 20.1744 2.16122C19.7788 3.08113 18.8313 3.57789 18.1322 4.24943C16.8535 5.48211 16.4533 7.56572 16.0854 9.22616C16.0689 9.3131 16.0353 9.39586 15.9863 9.46956C15.9374 9.54326 15.8742 9.60641 15.8005 9.65528C15.7267 9.70416 15.6439 9.73777 15.557 9.75413C15.47 9.77048 15.3807 9.76925 15.2942 9.75051Z" fill="black"/>
<path d="M12.8216 8.04991C12.3412 8.05735 11.8665 7.94344 11.4418 7.71874C11.037 7.48416 10.4989 7.0702 9.99291 7.25878C9.48696 7.44736 9.22478 8.22009 8.79702 8.59725C8.16295 9.06622 7.48703 9.47578 6.77782 9.82074C6.18728 10.1683 5.62307 10.5588 5.08977 10.989C2.72936 12.9114 1.11738 15.6003 0.534136 18.5881C-0.04911 21.5759 0.433269 24.6736 1.8974 27.3426C3.36153 30.0115 5.7148 32.0829 8.54798 33.1965C11.3812 34.3102 14.515 34.3955 17.4047 33.4379C20.2943 32.4802 22.7569 30.5401 24.3642 27.9548C25.9715 25.3695 26.6219 22.3027 26.2023 19.2876C25.7826 16.2725 24.3195 13.4998 22.0673 11.4517C19.8151 9.40362 16.9163 8.20968 13.8749 8.0775C13.5346 8.0499 13.1758 8.0637 12.8216 8.04991Z" fill="black"/>
<path d="M3.88346 3.20182C3.98832 2.84547 4.19254 2.52638 4.4722 2.28191C4.73257 2.0706 5.06553 1.97004 5.39934 2.00187C5.73315 2.0337 6.04109 2.19538 6.25684 2.45209C7.31934 3.72157 6.51441 5.67179 6.47302 7.12985C6.49296 8.37744 6.79155 9.60479 7.34693 10.7221C7.47496 10.9288 7.5711 11.1537 7.6321 11.389C7.6622 11.5675 7.63365 11.7509 7.55073 11.9118C7.46781 12.0727 7.33497 12.2023 7.17214 12.2814C6.64319 12.5435 6.30283 11.987 6.08665 11.5914C5.59014 10.6615 5.14185 9.70656 4.74357 8.73049C4.30689 7.74597 3.98883 6.71301 3.79606 5.65338C3.7654 5.46327 3.73934 5.27162 3.71788 5.07844C3.69641 4.88525 3.68414 4.71048 3.68107 4.55409C3.66886 4.09496 3.73737 3.63726 3.88346 3.20182Z" fill="black"/>
<path d="M25.3803 19.3593C24.9618 14.5067 21.0889 10.5833 16.7377 10.5879C12.3866 10.5925 9.23585 14.5113 9.64981 19.3271C10.0638 24.1428 13.909 28.0663 18.2464 28.1031C22.5838 28.1399 25.7989 24.2118 25.3803 19.3593ZM23.1127 24.8788C22.5719 25.4913 21.9113 25.9865 21.1716 26.3338C20.4319 26.6811 19.6289 26.8731 18.8121 26.898C17.8521 26.907 16.9003 26.7214 16.014 26.3522C15.1278 25.983 14.3257 25.4379 13.656 24.75C12.1698 23.2974 11.2432 21.3675 11.0389 19.2995C10.911 18.2625 10.9999 17.2103 11.2999 16.2095C11.6 15.2087 12.1048 14.2811 12.7821 13.4856C13.3244 12.8728 13.9867 12.3778 14.728 12.0312C15.4694 11.6847 16.2739 11.494 17.0919 11.471H17.2851C18.2348 11.4907 19.1711 11.6988 20.0396 12.0833C20.9082 12.4679 21.6917 13.0211 22.3446 13.711C23.7812 15.1686 24.67 17.0778 24.8606 19.1155C24.9766 20.1409 24.8814 21.1793 24.5808 22.1665C24.2802 23.1538 23.7806 24.069 23.1127 24.8558V24.8788Z" fill="white"/>
<path d="M72.6758 16.5956C73.1587 17.4005 74.4696 19.0104 77.4271 19.5761L77.6755 18.2837C76.4052 18.0924 75.229 17.5011 74.3178 16.5956H77.7169V15.3123H71.9997V14.65H77.2846V13.4265H72.225V12.8608H76.9212V11.6695H72.2434V11.021H76.9396V9.82967H72.2434V9.18112H77.3029V7.95764H72.4274C72.7206 7.77693 72.9716 7.53537 73.1633 7.2493C73.3151 7.01012 73.3979 6.86294 73.4025 6.84914L72.1928 6.19141C72.0539 6.43804 71.9003 6.67611 71.7329 6.90433C71.5159 7.2655 71.2 7.55703 70.8227 7.74449C70.4453 7.93195 70.0222 8.0075 69.6033 7.96224H68.0808C68.3426 7.61545 68.5852 7.25461 68.8075 6.88134L67.5979 6.22361C66.6874 7.73295 65.5307 9.07928 64.1758 10.2068L65.0589 11.2601C65.2889 11.0669 65.5188 10.8738 65.712 10.6806V13.3667C65.712 14.2499 66.1306 14.6684 67.0137 14.6684H70.6198V15.3307H64.9025V16.614H68.3016C67.3904 17.5195 66.2142 18.1108 64.9439 18.3021L65.1923 19.5946C68.1498 19.0288 69.4607 17.4235 69.9436 16.614H70.6198V19.7279H71.9997V16.614L72.6758 16.5956ZM70.8635 11.6465H67.0597V11.021H70.8635V11.6465ZM70.8635 9.19492V9.81126H67.0597V9.27312L67.1241 9.19492H70.8635ZM67.0597 13.1644V12.8608H70.8635V13.4449H67.3173C67.0965 13.4219 67.0643 13.3897 67.0643 13.1644H67.0597Z" fill="black"/>
<path d="M47.1705 17.5339C47.4602 16.7428 47.5016 14.9627 47.5016 13.3023V12.7044H45.6618L46.0344 7.04688H40.0273V8.33016H44.5625L44.2774 12.7044H41.927L42.1891 9.0247H40.8691L40.5103 13.9876H46.1172C46.1172 15.6297 46.0206 16.6002 45.8734 16.9957C45.6664 17.5569 45.3077 18.187 43.9278 18.187H41.7752V19.5025H44.0152C45.671 19.5071 46.6783 18.8816 47.1705 17.5339Z" fill="black"/>
<path d="M39.8742 18.3803V16.7429H44.6302V15.363H39.8742V16.7199H38.4944V18.0629H37.3997V15.7631H38.0344C38.2439 15.7767 38.4538 15.7454 38.6502 15.6713C38.8467 15.5973 39.025 15.4822 39.1735 15.3338C39.3219 15.1853 39.437 15.007 39.511 14.8105C39.585 14.6141 39.6164 14.4042 39.6028 14.1947V8.38084H37.4043V6.54102H36.0244V8.38084H33.8948V15.7401H36.0336V18.0399H33.8672V19.4796H38.7611C38.909 19.4911 39.0577 19.4707 39.1971 19.4197C39.3364 19.3687 39.4632 19.2884 39.5687 19.1842C39.6743 19.0799 39.7562 18.9542 39.8089 18.8155C39.8616 18.6768 39.8839 18.5284 39.8742 18.3803ZM38.223 9.71932V14.2407C38.223 14.2919 38.2026 14.3411 38.1664 14.3773C38.1302 14.4135 38.081 14.4339 38.0298 14.4339H37.3997V9.72391L38.223 9.71932ZM35.2747 14.4155V9.72391H36.0336V14.4109L35.2747 14.4155Z" fill="black"/>
<path d="M92.7695 17.2529V6.88086H80.3047V19.7137H90.3087C91.9232 19.7137 92.7695 18.8397 92.7695 17.2529ZM91.3896 17.2529C91.4031 17.3988 91.3842 17.5459 91.3344 17.6837C91.2846 17.8215 91.2051 17.9466 91.1015 18.0502C90.9979 18.1539 90.8727 18.2334 90.7349 18.2832C90.5971 18.333 90.4501 18.3518 90.3041 18.3384H81.6937V8.26073H91.3896V17.2529Z" fill="black"/>
<path d="M82.4727 15.0598L82.9326 16.3523C84.944 15.5934 86.7074 14.2947 88.0289 12.5991V15.207C88.0182 15.4738 87.9024 15.7255 87.7068 15.9073C87.5112 16.0891 87.2517 16.1862 86.9848 16.1775H85.7475V17.493H87.1274C87.4274 17.5089 87.7274 17.4627 88.0087 17.3574C88.29 17.2522 88.5466 17.09 88.7624 16.8811C88.9782 16.6721 89.1487 16.421 89.2631 16.1432C89.3774 15.8655 89.4333 15.5671 89.4272 15.2668V11.8447H90.4253V10.5293H89.4272V9.11719H88.0473V10.5293H82.7118V11.8447H86.971C85.7707 13.2829 84.222 14.3898 82.4727 15.0598Z" fill="black"/>
<path d="M63.2719 18.6977C62.1076 17.7505 61.0174 16.7156 60.0109 15.6022C60.4817 14.9811 60.8987 14.3209 61.2573 13.6289C62.1772 11.8167 62.2692 9.88029 62.2692 8.05426H60.8296C60.8296 9.70551 60.7652 11.4487 59.9787 12.9712C59.7163 13.4793 59.4181 13.9681 59.0863 14.4339C58.7546 13.9681 58.4564 13.4793 58.194 12.9712C57.4075 11.4487 57.3431 9.70551 57.3431 8.05426H55.9034C55.9034 9.8021 55.9816 11.8213 56.9153 13.6289C57.274 14.3209 57.691 14.981 58.1618 15.6022C57.2939 16.5694 56.3578 17.4733 55.3607 18.3067V16.7244H53.9808V18.0675H52.8861V15.7677H53.5163C53.7257 15.7813 53.9357 15.7499 54.1321 15.6759C54.3285 15.6019 54.5069 15.4868 54.6553 15.3384C54.8038 15.1899 54.9188 15.0116 54.9929 14.8151C55.0669 14.6187 55.0982 14.4088 55.0847 14.1993V8.38084H52.8861V6.54102H51.5063V8.38084H49.3675V15.7401H51.5063V18.0399H49.3398V19.4796H54.2338C54.4189 19.4932 54.6043 19.4578 54.7714 19.3771C54.9386 19.2964 55.0815 19.1731 55.1859 19.0196L55.8206 19.774C56.9799 18.8277 58.0712 17.801 59.0863 16.7015C60.1014 17.801 61.1927 18.8277 62.352 19.774L63.2719 18.6977ZM53.7048 9.72391V14.2407C53.7048 14.2919 53.6845 14.3411 53.6483 14.3773C53.612 14.4135 53.5629 14.4339 53.5117 14.4339H52.8815V9.72391H53.7048ZM50.7473 14.4109V9.72391H51.5063V14.4109H50.7473Z" fill="black"/>
<path d="M58.5981 10.6072L59.7296 10.4646C59.711 9.12137 59.6111 7.78044 59.4307 6.44922L58.0508 6.647V6.79879C58.306 8.05674 58.4887 9.32832 58.5981 10.6072Z" fill="black"/>
<path d="M104.814 22.5703H100.867V31.4153C101.123 31.4692 101.383 31.4954 101.645 31.4935C101.906 31.4948 102.166 31.4686 102.422 31.4153V28.5544H104.869C106.709 28.5544 107.946 27.3677 107.946 25.5278C107.946 23.688 106.722 22.5703 104.814 22.5703ZM104.556 27.1699H102.431V23.9502H104.565C105.899 23.9502 106.474 24.4101 106.474 25.5692C106.474 26.7283 105.747 27.1699 104.556 27.1699Z" fill="black"/>
<path d="M78.2255 28.3291C77.7656 27.9611 77.3516 27.8691 77.3608 27.8001C77.37 27.7311 77.5908 27.7587 77.9772 27.6392C78.5264 27.5139 79.0161 27.204 79.3643 26.7611C79.7126 26.3183 79.8983 25.7693 79.8906 25.206C79.8906 23.1224 78.4509 22.5566 76.3673 22.5566H72.5312V31.4154C72.7852 31.4694 73.0443 31.4956 73.304 31.4936C73.5636 31.4949 73.8226 31.4687 74.0767 31.4154V28.0393H75.0702C75.6385 27.9874 76.2082 28.1214 76.6939 28.4211C77.162 28.8177 77.556 29.2942 77.8576 29.8286C78.1105 30.2195 78.7361 31.4016 78.7361 31.4016C79.0396 31.4563 79.3476 31.4825 79.656 31.4798C79.9547 31.4841 80.2523 31.4437 80.5391 31.3602C80.5391 31.3602 79.6192 29.8653 79.2098 29.3548C78.923 28.9755 78.5926 28.6313 78.2255 28.3291ZM76.1235 26.7376H74.0951V23.8629H76.3949C77.7288 23.8629 78.3497 24.1251 78.3497 25.2106C78.3497 26.2961 77.4574 26.7376 76.1235 26.7376Z" fill="black"/>
<path d="M97.5176 22.5705V27.8278C97.5176 29.2536 96.6759 30.1552 95.2823 30.1552C93.8886 30.1552 93.0468 29.2352 93.0468 27.8278V22.5705C92.7913 22.5165 92.5307 22.4903 92.2695 22.4923C92.0084 22.4909 91.7478 22.5171 91.4922 22.5705V27.8784C91.4922 30.468 93.1527 31.5994 95.2777 31.5994C97.4027 31.5994 99.0631 30.468 99.0631 27.8784V22.5705C98.8075 22.5165 98.5469 22.4903 98.2858 22.4923C98.0277 22.4916 97.7703 22.5178 97.5176 22.5705Z" fill="black"/>
<path d="M66.7197 23.8173C67.3025 23.7951 67.8812 23.924 68.3994 24.1916C68.9177 24.4592 69.3579 24.8563 69.6772 25.3443L70.8179 24.5026C69.7922 23.0905 68.6791 22.4006 66.5955 22.4006C65.9942 22.3948 65.3978 22.5104 64.8422 22.7407C64.2866 22.9709 63.7833 23.311 63.3623 23.7406C62.9414 24.1701 62.6115 24.6802 62.3925 25.2404C62.1735 25.8005 62.0699 26.399 62.0879 27.0002C62.0879 29.6725 63.9738 31.5997 66.3103 31.5997C66.9138 31.5999 67.5111 31.4794 68.0674 31.2456C68.4241 31.1093 68.7638 30.9318 69.0793 30.7166C69.2035 30.6338 69.3461 30.5326 69.4381 30.5694C69.5301 30.6062 69.5209 30.6844 69.5209 30.781C69.5209 31.0616 69.5209 31.3974 69.5209 31.3974C69.7125 31.4508 69.9106 31.4772 70.1096 31.4755C70.3114 31.4775 70.5121 31.4448 70.7029 31.379V26.6598H66.7335V27.9201H69.3415C69.3415 28.8676 68.4767 30.1877 66.5219 30.1877C64.6821 30.1877 63.5966 28.7204 63.5966 27.0232C63.5881 26.6068 63.6624 26.1928 63.8153 25.8054C63.9682 25.418 64.1966 25.0649 64.4872 24.7666C64.7778 24.4683 65.1249 24.2307 65.5081 24.0677C65.8914 23.9048 66.3032 23.8196 66.7197 23.8173Z" fill="black"/>
<path d="M85.584 22.4004C84.6742 22.4004 83.785 22.6701 83.0286 23.1756C82.2722 23.681 81.6826 24.3993 81.3345 25.2398C80.9864 26.0802 80.8953 27.0051 81.0728 27.8973C81.2502 28.7895 81.6883 29.6091 82.3316 30.2524C82.9748 30.8956 83.7944 31.3337 84.6866 31.5111C85.5788 31.6886 86.5037 31.5975 87.3441 31.2494C88.1846 30.9013 88.9029 30.3117 89.4084 29.5554C89.9138 28.799 90.1835 27.9097 90.1835 27C90.1835 25.7801 89.6989 24.6102 88.8363 23.7476C87.9737 22.885 86.8038 22.4004 85.584 22.4004ZM85.584 30.0633C84.9781 30.0633 84.3858 29.8836 83.8821 29.547C83.3783 29.2104 82.9857 28.732 82.7538 28.1723C82.522 27.6125 82.4613 26.9966 82.5795 26.4023C82.6977 25.8081 82.9894 25.2623 83.4179 24.8339C83.8463 24.4054 84.3921 24.1137 84.9863 23.9955C85.5805 23.8773 86.1965 23.938 86.7562 24.1698C87.316 24.4017 87.7944 24.7943 88.131 25.2981C88.4676 25.8018 88.6472 26.3941 88.6472 27C88.6473 27.8116 88.3252 28.5901 87.7517 29.1644C87.1782 29.7388 86.4002 30.0621 85.5886 30.0633H85.584Z" fill="black"/>
<path d="M51.4844 23.9812H54.7041V31.4096C54.9751 31.4636 55.251 31.4898 55.5274 31.4877C55.8038 31.4892 56.0796 31.463 56.3507 31.4096V23.9812H59.5704V22.5508H51.4844V23.9812Z" fill="black"/>
<path d="M48.6507 22.547V28.9864C47.2941 26.737 45.7818 24.5853 44.1247 22.547C43.8738 22.4931 43.6178 22.4669 43.3612 22.4689C43.1046 22.4674 42.8486 22.4936 42.5977 22.547V31.4104C42.847 31.4644 43.1015 31.4906 43.3566 31.4886C43.6116 31.49 43.8661 31.4638 44.1155 31.4104V24.5433C45.7346 26.7741 47.257 29.0738 48.6231 31.4104C48.8755 31.4643 49.1331 31.4905 49.3912 31.4886C49.6493 31.4898 49.9068 31.4636 50.1593 31.4104V22.547C49.91 22.493 49.6555 22.4668 49.4004 22.4689C49.1484 22.4681 48.8971 22.4943 48.6507 22.547Z" fill="black"/>
<path d="M41.4611 31.3467L41.4059 31.1535L41.3507 30.9649L41.1208 30.206L41.0058 29.8242L40.8816 29.447L40.6332 28.6927C40.5504 28.4397 40.4584 28.1913 40.371 27.943L40.2423 27.5704C40.2009 27.4462 40.1503 27.322 40.1043 27.1978L39.8283 26.4527C39.4465 25.4638 39.0418 24.4841 38.6048 23.5182C38.4944 23.2744 38.384 23.0352 38.269 22.7961L38.1403 22.5293H36.0567L35.9233 22.8099C35.8083 23.049 35.7025 23.2698 35.5921 23.532C35.1597 24.4979 34.755 25.4776 34.3778 26.4665L34.1018 27.2117C34.0558 27.3358 34.0098 27.46 33.9638 27.5842L33.8305 27.9568C33.7431 28.2052 33.6557 28.4535 33.5683 28.7065L33.3199 29.4608L33.1957 29.838L33.0761 30.2152L32.8416 30.9741C32.8002 31.0983 32.7634 31.2271 32.7266 31.3559V31.4202C32.9853 31.4738 33.2489 31.5001 33.5131 31.4985C33.7788 31.4996 34.0439 31.4733 34.3042 31.4202L34.525 30.6751L34.6354 30.3025L34.755 29.9346L35.0632 29.0147C35.7411 28.9198 36.427 28.8951 37.1099 28.9411C37.7668 28.9959 38.4134 29.1382 39.0326 29.3642C39.2304 29.4562 39.3223 29.5068 39.3867 29.6586L39.4741 29.93L39.5891 30.2979L39.6995 30.6705L39.9157 31.4157V31.4387C40.1741 31.4944 40.4379 31.5206 40.7022 31.5168C40.9648 31.5174 41.2268 31.4912 41.4841 31.4387L41.4611 31.3467ZM37.1146 27.7866C36.5289 27.7962 35.9473 27.8843 35.3851 28.0488C35.4127 27.9752 35.4679 27.7774 35.4909 27.7084L35.7531 26.9817C36.1165 26.0158 36.4936 25.0545 36.9076 24.1115L36.9766 23.9505C37.018 23.8494 37.064 23.8218 37.1099 23.8218C37.1559 23.8218 37.1974 23.8494 37.2341 23.9322L37.3123 24.1023C37.7263 25.0223 38.1081 26.002 38.4714 26.9725L38.7336 27.6992L38.8164 27.9292C38.2553 27.8249 37.6852 27.7771 37.1146 27.7866Z" fill="black"/>
</g>
<defs>
<clipPath id="clip0_1630_8507">
<rect width="107.616" height="34" fill="white" transform="translate(0.328125)"/>
</clipPath>
</defs>
</svg>
