<svg width="109" height="35" viewBox="0 0 109 35" fill="none" xmlns="http://www.w3.org/2000/svg">
<g id="ant-group-seeklogo 1" clip-path="url(#clip0_1630_8507)">
<path id="Vector" d="M15.9427 10.1118C15.8209 10.0844 15.7088 10.0246 15.6182 9.93878C15.5275 9.85298 15.4617 9.74434 15.4275 9.62428C15.3627 9.36767 15.3627 9.09897 15.4275 8.84236C15.6667 7.50849 15.8875 6.17 16.1957 4.84993C16.4111 3.76472 16.8395 2.73296 17.4559 1.81422C17.9222 1.14599 18.6044 0.65871 19.3878 0.434354C20.7308 0.0985856 21.2874 1.40945 20.8228 2.52255C20.4273 3.44246 19.4798 3.93922 18.7806 4.61076C17.5019 5.84344 17.1018 7.92705 16.7338 9.58749C16.7174 9.67442 16.6837 9.75719 16.6348 9.83089C16.5858 9.90459 16.5226 9.96773 16.4489 10.0166C16.3752 10.0655 16.2924 10.0991 16.2054 10.1155C16.1185 10.1318 16.0291 10.1306 15.9427 10.1118Z" fill="#0C0020"/>
<path id="Vector_2" d="M13.4701 8.41123C12.9896 8.41868 12.515 8.30477 12.0902 8.08006C11.6854 7.84549 11.1473 7.43153 10.6413 7.62011C10.1354 7.80869 9.87322 8.58142 9.44546 8.95858C8.81138 9.42755 8.13546 9.83711 7.42625 10.1821C6.83572 10.5296 6.27151 10.9201 5.73821 11.3503C3.3778 13.2727 1.76582 15.9616 1.18257 18.9494C0.599327 21.9372 1.08171 25.0349 2.54584 27.7039C4.00997 30.3728 6.36323 32.4442 9.19642 33.5579C12.0296 34.6715 15.1635 34.7569 18.0531 33.7992C20.9427 32.8415 23.4053 30.9014 25.0127 28.3161C26.62 25.7309 27.2704 22.664 26.8507 19.6489C26.4311 16.6338 24.9679 13.8611 22.7157 11.813C20.4635 9.76494 17.5647 8.57101 14.5234 8.43883C14.183 8.41123 13.8242 8.42503 13.4701 8.41123Z" fill="#0C0020"/>
<path id="Vector_3" d="M4.53189 3.56315C4.63676 3.2068 4.84097 2.88771 5.12064 2.64323C5.38101 2.43193 5.71397 2.33137 6.04778 2.3632C6.38159 2.39503 6.68953 2.55671 6.90527 2.81342C7.96777 4.0829 7.16285 6.03312 7.12145 7.49118C7.1414 8.73877 7.43999 9.96611 7.99537 11.0834C8.1234 11.2902 8.21954 11.515 8.28054 11.7504C8.31064 11.9288 8.28209 12.1123 8.19917 12.2731C8.11624 12.434 7.98341 12.5637 7.82058 12.6427C7.29163 12.9049 6.95127 12.3483 6.73509 11.9528C6.23858 11.0228 5.79029 10.0679 5.39201 9.09182C4.95533 8.1073 4.63726 7.07434 4.4445 6.01471C4.41384 5.82459 4.38778 5.63295 4.36632 5.43976C4.34485 5.24658 4.33258 5.07181 4.32951 4.91542C4.3173 4.45629 4.3858 3.99858 4.53189 3.56315Z" fill="#0C0020"/>
<path id="Vector_4" d="M26.0288 19.7206C25.6102 14.8681 21.7374 10.9446 17.3862 10.9492C13.035 10.9538 9.88429 14.8727 10.2983 19.6884C10.7122 24.5041 14.5575 28.4276 18.8948 28.4644C23.2322 28.5012 26.4473 24.5731 26.0288 19.7206ZM23.7612 25.2401C23.2204 25.8526 22.5597 26.3479 21.82 26.6952C21.0804 27.0424 20.2773 27.2344 19.4606 27.2593C18.5006 27.2684 17.5487 27.0827 16.6625 26.7135C15.7763 26.3443 14.9741 25.7992 14.3045 25.1113C12.8183 23.6588 11.8916 21.7289 11.6873 19.6608C11.5594 18.6238 11.6483 17.5716 11.9484 16.5708C12.2485 15.57 12.7532 14.6425 13.4306 13.8469C13.9728 13.2341 14.6351 12.7391 15.3765 12.3926C16.1178 12.046 16.9224 11.8554 17.7403 11.8323H17.9335C18.8832 11.852 19.8195 12.0601 20.6881 12.4447C21.5566 12.8292 22.3401 13.3825 22.9931 14.0723C24.4296 15.53 25.3184 17.4392 25.509 19.4768C25.6251 20.5023 25.5298 21.5406 25.2292 22.5279C24.9286 23.5151 24.429 24.4303 23.7612 25.2171V25.2401Z" fill="white"/>
<path id="Vector_5" d="M73.3242 16.957C73.8072 17.7619 75.1181 19.3717 78.0756 19.9375L78.3239 18.645C77.0537 18.4537 75.8775 17.8624 74.9663 16.957H78.3653V15.6737H72.6481V15.0113H77.933V13.7879H72.8735V13.2221H77.5696V12.0308H72.8919V11.3823H77.588V10.191H72.8919V9.54245H77.9514V8.31897H73.0758C73.369 8.13826 73.62 7.8967 73.8118 7.61063C73.9636 7.37145 74.0464 7.22427 74.051 7.21047L72.8413 6.55273C72.7024 6.79937 72.5488 7.03744 72.3813 7.26566C72.1643 7.62683 71.8485 7.91836 71.4711 8.10582C71.0937 8.29327 70.6706 8.36883 70.2517 8.32357H68.7292C68.991 7.97678 69.2336 7.61594 69.456 7.24267L68.2463 6.58493C67.3358 8.09428 66.1791 9.44061 64.8242 10.5682L65.7073 11.6215C65.9373 11.4283 66.1673 11.2351 66.3605 11.0419V13.7281C66.3605 14.6112 66.779 15.0297 67.6621 15.0297H71.2682V15.6921H65.5509V16.9754H68.95C68.0388 17.8808 66.8626 18.4721 65.5923 18.6634L65.8407 19.9559C68.7982 19.3901 70.1091 17.7849 70.5921 16.9754H71.2682V20.0893H72.6481V16.9754L73.3242 16.957ZM71.512 12.0078H67.7081V11.3823H71.512V12.0078ZM71.512 9.55625V10.1726H67.7081V9.63445L67.7725 9.55625H71.512ZM67.7081 13.5257V13.2221H71.512V13.8062H67.9657C67.7449 13.7832 67.7127 13.7511 67.7127 13.5257H67.7081Z" fill="#0C0020"/>
<path id="Vector_6" d="M47.8189 17.8952C48.1087 17.1041 48.1501 15.3241 48.1501 13.6636V13.0657H46.3103L46.6828 7.4082H40.6758V8.69149H45.211L44.9258 13.0657H42.5754L42.8376 9.38603H41.5175L41.1587 14.349H46.7656C46.7656 15.991 46.669 16.9615 46.5218 17.3571C46.3149 17.9182 45.9561 18.5484 44.5762 18.5484H42.4236V19.8638H44.6636C46.3195 19.8684 47.3268 19.2429 47.8189 17.8952Z" fill="#0C0020"/>
<path id="Vector_7" d="M40.5227 18.7416V17.1042H45.2786V15.7243H40.5227V17.0812H39.1428V18.4243H38.0481V16.1245H38.6828C38.8923 16.138 39.1023 16.1067 39.2987 16.0326C39.4951 15.9586 39.6735 15.8435 39.8219 15.6951C39.9703 15.5467 40.0854 15.3683 40.1594 15.1719C40.2335 14.9754 40.2648 14.7655 40.2513 14.556V8.74217H38.0527V6.90234H36.6728V8.74217H34.5432V16.1015H36.682V18.4013H34.5156V19.8409H39.4096C39.5575 19.8525 39.7062 19.832 39.8455 19.781C39.9849 19.7301 40.1116 19.6497 40.2172 19.5455C40.3227 19.4412 40.4047 19.3155 40.4574 19.1768C40.5101 19.0381 40.5323 18.8897 40.5227 18.7416ZM38.8714 10.0806V14.602C38.8714 14.6532 38.8511 14.7024 38.8148 14.7386C38.7786 14.7748 38.7295 14.7952 38.6782 14.7952H38.0481V10.0852L38.8714 10.0806ZM35.9231 14.7768V10.0852H36.682V14.7722L35.9231 14.7768Z" fill="#0C0020"/>
<path id="Vector_8" d="M93.4179 17.6142V7.24219H80.9531V20.075H90.9572C92.5716 20.075 93.4179 19.2011 93.4179 17.6142ZM92.0381 17.6142C92.0515 17.7601 92.0327 17.9072 91.9829 18.045C91.9331 18.1828 91.8536 18.308 91.75 18.4116C91.6463 18.5152 91.5212 18.5947 91.3834 18.6445C91.2456 18.6943 91.0985 18.7131 90.9526 18.6997H82.3422V8.62206H92.0381V17.6142Z" fill="#0C0020"/>
<path id="Vector_9" d="M83.1211 15.4212L83.5811 16.7136C85.5925 15.9547 87.3558 14.656 88.6774 12.9604V15.5684C88.6666 15.8352 88.5508 16.0869 88.3552 16.2687C88.1597 16.4505 87.9001 16.5476 87.6333 16.5389H86.396V17.8543H87.7759C88.0758 17.8702 88.3758 17.8241 88.6571 17.7188C88.9385 17.6135 89.195 17.4513 89.4109 17.2424C89.6267 17.0335 89.7971 16.7823 89.9115 16.5045C90.0259 16.2268 90.0817 15.9285 90.0756 15.6281V12.2061H91.0738V10.8906H90.0756V9.47852H88.6958V10.8906H83.3603V12.2061H87.6195C86.4191 13.6443 84.8705 14.7511 83.1211 15.4212Z" fill="#0C0020"/>
<path id="Vector_10" d="M63.9204 19.059C62.756 18.1118 61.6658 17.0769 60.6593 15.9635C61.1302 15.3424 61.5471 14.6823 61.9058 13.9903C62.8257 12.178 62.9177 10.2416 62.9177 8.41559H61.478C61.478 10.0668 61.4136 11.8101 60.6271 13.3325C60.3648 13.8407 60.0666 14.3295 59.7348 14.7952C59.403 14.3294 59.1048 13.8406 58.8425 13.3325C58.0559 11.8101 57.9915 10.0668 57.9915 8.41559H56.5519C56.5519 10.1634 56.6301 12.1826 57.5638 13.9903C57.9224 14.6822 58.3394 15.3424 58.8103 15.9635C57.9424 16.9308 57.0063 17.8346 56.0091 18.668V17.0858H54.6293V18.4289H53.5346V16.1291H54.1647C54.3742 16.1426 54.5841 16.1113 54.7805 16.0372C54.977 15.9632 55.1553 15.8481 55.3038 15.6997C55.4522 15.5513 55.5673 15.3729 55.6413 15.1765C55.7154 14.98 55.7467 14.7701 55.7332 14.5606V8.74217H53.5346V6.90234H52.1547V8.74217H50.0159V16.1015H52.1547V18.4013H49.9883V19.8409H54.8822C55.0673 19.8545 55.2528 19.8192 55.4199 19.7384C55.587 19.6577 55.7299 19.5344 55.8343 19.381L56.4691 20.1353C57.6284 19.189 58.7196 18.1623 59.7348 17.0628C60.7499 18.1623 61.8411 19.1891 63.0005 20.1353L63.9204 19.059ZM54.3533 10.0852V14.602C54.3533 14.6532 54.3329 14.7024 54.2967 14.7386C54.2605 14.7748 54.2113 14.7952 54.1601 14.7952H53.53V10.0852H54.3533ZM51.3958 14.7722V10.0852H52.1547V14.7722H51.3958Z" fill="#0C0020"/>
<path id="Vector_11" d="M59.2466 10.9686L60.378 10.826C60.3594 9.4827 60.2596 8.14177 60.0791 6.81055L58.6992 7.00832V7.16012C58.9544 8.41807 59.1372 9.68965 59.2466 10.9686Z" fill="#0C0020"/>
<path id="Vector_12" d="M105.462 22.9316H101.516V31.7766C101.771 31.8306 102.032 31.8568 102.293 31.8548C102.554 31.8561 102.815 31.8299 103.07 31.7766V28.9157H105.517C107.357 28.9157 108.594 27.729 108.594 25.8892C108.594 24.0493 107.371 22.9316 105.462 22.9316ZM105.204 27.5312H103.079V24.3115H105.214C106.548 24.3115 107.122 24.7715 107.122 25.9306C107.122 27.0897 106.396 27.5312 105.204 27.5312Z" fill="#0C0020"/>
<path id="Vector_13" d="M78.874 28.6904C78.414 28.3225 78 28.2305 78.0092 28.1615C78.0184 28.0925 78.2392 28.1201 78.6256 28.0005C79.1749 27.8752 79.6645 27.5653 80.0128 27.1224C80.361 26.6796 80.5468 26.1307 80.539 25.5673C80.539 23.4837 79.0993 22.918 77.0157 22.918H73.1797V31.7767C73.4337 31.8307 73.6928 31.8569 73.9524 31.8549C74.212 31.8562 74.471 31.83 74.7251 31.7767V28.4006H75.7187C76.2869 28.3488 76.8567 28.4827 77.3423 28.7824C77.8104 29.179 78.2044 29.6556 78.506 30.1899C78.759 30.5808 79.3845 31.7629 79.3845 31.7629C79.688 31.8176 79.996 31.8438 80.3044 31.8411C80.6031 31.8454 80.9007 31.8051 81.1875 31.7215C81.1875 31.7215 80.2676 30.2267 79.8583 29.7161C79.5714 29.3369 79.2411 28.9926 78.874 28.6904ZM76.7719 27.099H74.7436V24.2242H77.0433C78.3772 24.2242 78.9982 24.4864 78.9982 25.5719C78.9982 26.6574 78.1058 27.099 76.7719 27.099Z" fill="#0C0020"/>
<path id="Vector_14" d="M98.1661 22.9318V28.1891C98.1661 29.615 97.3244 30.5165 95.9307 30.5165C94.537 30.5165 93.6953 29.5966 93.6953 28.1891V22.9318C93.4397 22.8778 93.1791 22.8516 92.918 22.8536C92.6568 22.8523 92.3963 22.8785 92.1406 22.9318V28.2397C92.1406 30.8293 93.8011 31.9608 95.9261 31.9608C98.0511 31.9608 99.7115 30.8293 99.7115 28.2397V22.9318C99.456 22.8778 99.1954 22.8516 98.9342 22.8536C98.6761 22.8529 98.4187 22.8791 98.1661 22.9318Z" fill="#0C0020"/>
<path id="Vector_15" d="M67.3681 24.1786C67.951 24.1564 68.5296 24.2854 69.0479 24.5529C69.5661 24.8205 70.0063 25.2176 70.3257 25.7057L71.4664 24.8639C70.4407 23.4519 69.3276 22.7619 67.244 22.7619C66.6426 22.7561 66.0462 22.8718 65.4906 23.102C64.9351 23.3323 64.4317 23.6724 64.0108 24.1019C63.5898 24.5314 63.26 25.0416 63.041 25.6017C62.822 26.1618 62.7184 26.7604 62.7364 27.3615C62.7364 30.0338 64.6222 31.9611 66.9588 31.9611C67.5622 31.9612 68.1596 31.8408 68.7158 31.6069C69.0726 31.4706 69.4122 31.2931 69.7277 31.078C69.8519 30.9952 69.9945 30.894 70.0865 30.9308C70.1785 30.9676 70.1693 31.0458 70.1693 31.1424C70.1693 31.4229 70.1693 31.7587 70.1693 31.7587C70.3609 31.8122 70.5591 31.8385 70.758 31.8369C70.9599 31.8388 71.1606 31.8062 71.3514 31.7403V27.0211H67.382V28.2814H69.9899C69.9899 29.2289 69.1252 30.549 67.1704 30.549C65.3305 30.549 64.245 29.0817 64.245 27.3845C64.2365 26.9681 64.3108 26.5542 64.4637 26.1668C64.6166 25.7794 64.845 25.4262 65.1356 25.1279C65.4263 24.8296 65.7733 24.5921 66.1566 24.4291C66.5398 24.2661 66.9517 24.181 67.3681 24.1786Z" fill="#0C0020"/>
<path id="Vector_16" d="M86.2324 22.7617C85.3227 22.7617 84.4334 23.0315 83.677 23.5369C82.9206 24.0423 82.3311 24.7606 81.9829 25.6011C81.6348 26.4416 81.5437 27.3664 81.7212 28.2586C81.8987 29.1509 82.3368 29.9704 82.98 30.6137C83.6233 31.2569 84.4428 31.695 85.335 31.8725C86.2273 32.05 87.1521 31.9589 87.9926 31.6107C88.833 31.2626 89.5514 30.6731 90.0568 29.9167C90.5622 29.1603 90.832 28.271 90.832 27.3613C90.832 26.1414 90.3473 24.9715 89.4848 24.1089C88.6222 23.2463 87.4523 22.7617 86.2324 22.7617ZM86.2324 30.4246C85.6265 30.4246 85.0343 30.2449 84.5305 29.9083C84.0268 29.5717 83.6341 29.0933 83.4023 28.5336C83.1704 27.9738 83.1097 27.3579 83.2279 26.7637C83.3461 26.1694 83.6379 25.6236 84.0663 25.1952C84.4947 24.7668 85.0405 24.475 85.6348 24.3568C86.229 24.2386 86.8449 24.2993 87.4047 24.5312C87.9644 24.763 88.4428 25.1557 88.7794 25.6594C89.116 26.1632 89.2957 26.7554 89.2957 27.3613C89.2957 28.1729 88.9736 28.9514 88.4001 29.5258C87.8266 30.1001 87.0486 30.4234 86.237 30.4246H86.2324Z" fill="#0C0020"/>
<path id="Vector_17" d="M52.1328 24.3426H55.3525V31.7709C55.6236 31.8249 55.8995 31.8511 56.1759 31.8491C56.4522 31.8506 56.728 31.8244 56.9992 31.7709V24.3426H60.2189V22.9121H52.1328V24.3426Z" fill="#0C0020"/>
<path id="Vector_18" d="M49.2991 22.9084V29.3478C47.9426 27.0983 46.4302 24.9466 44.7731 22.9084C44.5223 22.8544 44.2662 22.8282 44.0096 22.8302C43.753 22.8287 43.4971 22.8549 43.2461 22.9084V31.7717C43.4954 31.8257 43.7499 31.8519 44.005 31.8499C44.2601 31.8513 44.5145 31.8251 44.7639 31.7717V24.9046C46.383 27.1354 47.9054 29.4352 49.2715 31.7717C49.524 31.8256 49.7815 31.8518 50.0397 31.8499C50.2977 31.8512 50.5552 31.8249 50.8078 31.7717V22.9084C50.5585 22.8544 50.3039 22.8281 50.0488 22.8302C49.7969 22.8294 49.5455 22.8556 49.2991 22.9084Z" fill="#0C0020"/>
<path id="Vector_19" d="M42.1096 31.708L42.0544 31.5148L41.9992 31.3262L41.7692 30.5673L41.6542 30.1855L41.53 29.8084L41.2817 29.054C41.1989 28.8011 41.1069 28.5527 41.0195 28.3043L40.8907 27.9317C40.8493 27.8075 40.7987 27.6834 40.7527 27.5592L40.4767 26.814C40.095 25.8251 39.6902 24.8454 39.2532 23.8795C39.1429 23.6357 39.0325 23.3966 38.9175 23.1574L38.7887 22.8906H36.7051L36.5717 23.1712C36.4567 23.4104 36.3509 23.6312 36.2405 23.8933C35.8082 24.8592 35.4034 25.8389 35.0262 26.8279L34.7503 27.573C34.7043 27.6972 34.6583 27.8214 34.6123 27.9455L34.4789 28.3181C34.3915 28.5665 34.3041 28.8149 34.2167 29.0678L33.9683 29.8222L33.8442 30.1993L33.7246 30.5765L33.49 31.3354C33.4486 31.4596 33.4118 31.5884 33.375 31.7172V31.7816C33.6337 31.8352 33.8973 31.8614 34.1615 31.8598C34.4272 31.8609 34.6923 31.8347 34.9527 31.7816L35.1734 31.0364L35.2838 30.6639L35.4034 30.2959L35.7116 29.376C36.3895 29.2811 37.0754 29.2565 37.7584 29.3024C38.4152 29.3572 39.0618 29.4995 39.681 29.7256C39.8788 29.8176 39.9708 29.8682 40.0352 30.02L40.1226 30.2913L40.2376 30.6593L40.3479 31.0318L40.5641 31.777V31.8C40.8225 31.8557 41.0864 31.8819 41.3506 31.8782C41.6133 31.8787 41.8753 31.8526 42.1326 31.8L42.1096 31.708ZM37.763 28.1479C37.1774 28.1575 36.5957 28.2457 36.0335 28.4101C36.0611 28.3365 36.1163 28.1387 36.1393 28.0697L36.4015 27.343C36.7649 26.3771 37.142 25.4158 37.556 24.4729L37.625 24.3119C37.6664 24.2107 37.7124 24.1831 37.7584 24.1831C37.8044 24.1831 37.8458 24.2107 37.8826 24.2935L37.9608 24.4637C38.3747 25.3836 38.7565 26.3633 39.1199 27.3338L39.382 28.0605L39.4648 28.2905C38.9037 28.1862 38.3336 28.1385 37.763 28.1479Z" fill="#0C0020"/>
</g>
<defs>
<clipPath id="clip0_1630_8507">
<rect width="107.616" height="34" fill="white" transform="translate(0.976562 0.361328)"/>
</clipPath>
</defs>
</svg>
