<svg width="165" height="84" viewBox="0 0 165 84" fill="none" xmlns="http://www.w3.org/2000/svg">
<g clip-path="url(#clip0_1767_237)">
<path d="M43.513 34.7505C43.3912 34.723 43.2791 34.6632 43.1885 34.5774C43.0978 34.4917 43.032 34.383 42.9978 34.263C42.933 34.0063 42.933 33.7376 42.9978 33.481C43.237 32.1472 43.4578 30.8087 43.766 29.4886C43.9814 28.4034 44.4098 27.3716 45.0263 26.4529C45.4925 25.7847 46.1747 25.2974 46.9581 25.073C48.3011 24.7373 48.8577 26.0481 48.3931 27.1612C47.9976 28.0811 47.0501 28.5779 46.3509 29.2494C45.0723 30.4821 44.6721 32.5657 44.3041 34.2262C44.2877 34.3131 44.254 34.3959 44.2051 34.4696C44.1562 34.5433 44.093 34.6064 44.0192 34.6553C43.9455 34.7042 43.8627 34.7378 43.7757 34.7541C43.6888 34.7705 43.5995 34.7692 43.513 34.7505Z" fill="#0C0020"/>
<path d="M41.0404 33.0499C40.5599 33.0573 40.0853 32.9434 39.6605 32.7187C39.2558 32.4842 38.7176 32.0702 38.2117 32.2588C37.7057 32.4474 37.4435 33.2201 37.0158 33.5973C36.3817 34.0662 35.7058 34.4758 34.9966 34.8207C34.406 35.1683 33.8418 35.5588 33.3085 35.989C30.9481 37.9114 29.3361 40.6003 28.7529 43.5881C28.1696 46.5759 28.652 49.6736 30.1162 52.3426C31.5803 55.0115 33.9335 57.0829 36.7667 58.1965C39.5999 59.3101 42.7338 59.3955 45.6234 58.4379C48.5131 57.4802 50.9756 55.5401 52.583 52.9548C54.1903 50.3695 54.8407 47.3027 54.421 44.2876C54.0014 41.2725 52.5382 38.4998 50.286 36.4517C48.0338 34.4036 45.135 33.2097 42.0937 33.0775C41.7533 33.0499 41.3946 33.0637 41.0404 33.0499Z" fill="#0C0020"/>
<path d="M32.1022 28.2018C32.2071 27.8455 32.4113 27.5264 32.691 27.2819C32.9513 27.0706 33.2843 26.97 33.6181 27.0019C33.9519 27.0337 34.2598 27.1954 34.4756 27.4521C35.5381 28.7216 34.7332 30.6718 34.6918 32.1299C34.7117 33.3774 35.0103 34.6048 35.5657 35.7221C35.6937 35.9288 35.7898 36.1537 35.8509 36.389C35.8809 36.5675 35.8524 36.7509 35.7695 36.9118C35.6866 37.0727 35.5537 37.2023 35.3909 37.2814C34.8619 37.5435 34.5216 36.987 34.3054 36.5914C33.8089 35.6615 33.3606 34.7066 32.9623 33.7305C32.5256 32.746 32.2076 31.713 32.0148 30.6534C31.9841 30.4633 31.9581 30.2716 31.9366 30.0784C31.9152 29.8853 31.9029 29.7105 31.8998 29.5541C31.8876 29.095 31.9561 28.6373 32.1022 28.2018Z" fill="#0C0020"/>
<path d="M53.5991 44.3593C53.1805 39.5067 49.3077 35.5833 44.9565 35.5879C40.6053 35.5925 37.4546 39.5113 37.8686 44.3271C38.2825 49.1428 42.1278 53.0663 46.4652 53.1031C50.8025 53.1398 54.0176 49.2118 53.5991 44.3593ZM51.3315 49.8788C50.7907 50.4913 50.13 50.9865 49.3903 51.3338C48.6507 51.6811 47.8477 51.8731 47.0309 51.898C46.0709 51.907 45.119 51.7214 44.2328 51.3522C43.3466 50.983 42.5444 50.4379 41.8748 49.75C40.3886 48.2974 39.4619 46.3675 39.2576 44.2995C39.1297 43.2625 39.2186 42.2103 39.5187 41.2095C39.8188 40.2087 40.3235 39.2811 41.0009 38.4856C41.5432 37.8728 42.2055 37.3778 42.9468 37.0312C43.6881 36.6847 44.4927 36.494 45.3107 36.471H45.5038C46.4535 36.4907 47.3898 36.6988 48.2584 37.0833C49.1269 37.4679 49.9104 38.0211 50.5634 38.711C51.9999 40.1686 52.8887 42.0778 53.0793 44.1155C53.1954 45.1409 53.1002 46.1793 52.7996 47.1665C52.499 48.1538 51.9993 49.069 51.3315 49.8558V49.8788Z" fill="white"/>
<path d="M100.895 41.5956C101.377 42.4005 102.688 44.0104 105.646 44.5761L105.894 43.2837C104.624 43.0924 103.448 42.5011 102.537 41.5956H105.936V40.3123H100.218V39.65H105.503V38.4265H100.444V37.8608H105.14V36.6695H100.462V36.021H105.158V34.8297H100.462V34.1811H105.522V32.9576H100.646C100.939 32.7769 101.19 32.5354 101.382 32.2493C101.534 32.0101 101.617 31.8629 101.621 31.8491L100.412 31.1914C100.273 31.438 100.119 31.6761 99.9516 31.9043C99.7346 32.2655 99.4188 32.557 99.0414 32.7445C98.6641 32.9319 98.2409 33.0075 97.822 32.9622H96.2996C96.5613 32.6154 96.8039 32.2546 97.0263 31.8813L95.8166 31.2236C94.9061 32.7329 93.7494 34.0793 92.3945 35.2068L93.2776 36.2601C93.5076 36.0669 93.7376 35.8738 93.9308 35.6806V38.3667C93.9308 39.2498 94.3493 39.6684 95.2325 39.6684H98.8385V40.3307H93.1212V41.614H96.5203C95.6091 42.5195 94.4329 43.1108 93.1627 43.3021L93.411 44.5946C96.3685 44.0288 97.6794 42.4235 98.1624 41.614H98.8385V44.7279H100.218V41.614L100.895 41.5956ZM99.0823 36.6465H95.2784V36.021H99.0823V36.6465ZM99.0823 34.1949V34.8113H95.2784V34.2731L95.3428 34.1949H99.0823ZM95.2784 38.1644V37.8608H99.0823V38.4449H95.536C95.3152 38.4219 95.283 38.3897 95.283 38.1644H95.2784Z" fill="#0C0020"/>
<path d="M75.3892 42.5339C75.679 41.7428 75.7204 39.9627 75.7204 38.3023V37.7044H73.8806L74.2531 32.0469H68.2461V33.3302H72.7813L72.4961 37.7044H70.1457L70.4079 34.0247H69.0878L68.7291 38.9876H74.3359C74.3359 40.6297 74.2393 41.6002 74.0922 41.9957C73.8852 42.5569 73.5264 43.187 72.1465 43.187H69.9939V44.5025H72.2339C73.8898 44.5071 74.8971 43.8816 75.3892 42.5339Z" fill="#0C0020"/>
<path d="M68.093 43.3803V41.7429H72.8489V40.363H68.093V41.7199H66.7131V43.0629H65.6184V40.7631H66.2531C66.4626 40.7767 66.6726 40.7454 66.869 40.6713C67.0654 40.5973 67.2438 40.4822 67.3922 40.3338C67.5406 40.1853 67.6557 40.007 67.7298 39.8105C67.8038 39.6141 67.8351 39.4042 67.8216 39.1947V33.3808H65.623V31.541H64.2431V33.3808H62.1135V40.7401H64.2523V43.0399H62.0859V44.4796H66.9799C67.1278 44.4911 67.2765 44.4707 67.4158 44.4197C67.5552 44.3687 67.6819 44.2884 67.7875 44.1842C67.893 44.0799 67.975 43.9542 68.0277 43.8155C68.0804 43.6768 68.1027 43.5284 68.093 43.3803ZM66.4417 34.7193V39.2407C66.4417 39.2919 66.4214 39.3411 66.3851 39.3773C66.3489 39.4135 66.2998 39.4339 66.2485 39.4339H65.6184V34.7239L66.4417 34.7193ZM63.4934 39.4155V34.7239H64.2523V39.4109L63.4934 39.4155Z" fill="#0C0020"/>
<path d="M120.988 42.2529V31.8809H108.523V44.7137H118.527C120.142 44.7137 120.988 43.8397 120.988 42.2529ZM119.608 42.2529C119.622 42.3988 119.603 42.5459 119.553 42.6837C119.503 42.8215 119.424 42.9466 119.32 43.0502C119.217 43.1539 119.091 43.2334 118.954 43.2832C118.816 43.333 118.669 43.3518 118.523 43.3384H109.912V33.2607H119.608V42.2529Z" fill="#0C0020"/>
<path d="M110.691 40.0598L111.151 41.3523C113.163 40.5934 114.926 39.2947 116.248 37.5991V40.207C116.237 40.4738 116.121 40.7255 115.926 40.9073C115.73 41.0891 115.47 41.1862 115.204 41.1775H113.966V42.493H115.346C115.646 42.5089 115.946 42.4627 116.227 42.3574C116.509 42.2522 116.765 42.09 116.981 41.8811C117.197 41.6721 117.367 41.421 117.482 41.1432C117.596 40.8655 117.652 40.5671 117.646 40.2668V36.8447H118.644V35.5293H117.646V34.1172H116.266V35.5293H110.931V36.8447H115.19C113.989 38.2829 112.441 39.3898 110.691 40.0598Z" fill="#0C0020"/>
<path d="M91.4907 43.6977C90.3263 42.7505 89.2361 41.7156 88.2296 40.6022C88.7005 39.9811 89.1175 39.3209 89.4761 38.6289C90.396 36.8167 90.488 34.8803 90.488 33.0543H89.0483C89.0483 34.7055 88.9839 36.4487 88.1974 37.9712C87.9351 38.4793 87.6369 38.9681 87.3051 39.4339C86.9733 38.9681 86.6751 38.4793 86.4128 37.9712C85.6262 36.4487 85.5618 34.7055 85.5618 33.0543H84.1222C84.1222 34.8021 84.2004 36.8213 85.1341 38.6289C85.4927 39.3209 85.9098 39.981 86.3806 40.6022C85.5127 41.5694 84.5766 42.4733 83.5794 43.3067V41.7244H82.1996V43.0675H81.1049V40.7677H81.735C81.9445 40.7813 82.1544 40.7499 82.3509 40.6759C82.5473 40.6019 82.7256 40.4868 82.8741 40.3384C83.0225 40.1899 83.1376 40.0116 83.2116 39.8151C83.2857 39.6187 83.317 39.4088 83.3035 39.1993V33.3808H81.1049V31.541H79.725V33.3808H77.5862V40.7401H79.725V43.0399H77.5586V44.4796H82.4525C82.6376 44.4932 82.8231 44.4578 82.9902 44.3771C83.1573 44.2964 83.3002 44.1731 83.4046 44.0196L84.0394 44.774C85.1987 43.8277 86.29 42.801 87.3051 41.7015C88.3202 42.801 89.4114 43.8277 90.5708 44.774L91.4907 43.6977ZM81.9236 34.7239V39.2407C81.9236 39.2919 81.9032 39.3411 81.867 39.3773C81.8308 39.4135 81.7816 39.4339 81.7304 39.4339H81.1003V34.7239H81.9236ZM78.9661 39.4109V34.7239H79.725V39.4109H78.9661Z" fill="#0C0020"/>
<path d="M86.8169 35.6072L87.9484 35.4646C87.9297 34.1214 87.8299 32.7804 87.6494 31.4492L86.2695 31.647V31.7988C86.5247 33.0567 86.7075 34.3283 86.8169 35.6072Z" fill="#0C0020"/>
<path d="M133.032 47.5703H129.086V56.4153C129.341 56.4692 129.602 56.4954 129.863 56.4935C130.124 56.4948 130.385 56.4686 130.641 56.4153V53.5544H133.088C134.927 53.5544 136.165 52.3677 136.165 50.5278C136.165 48.688 134.941 47.5703 133.032 47.5703ZM132.775 52.1699H130.65V48.9502H132.784C134.118 48.9502 134.693 49.4101 134.693 50.5692C134.693 51.7283 133.966 52.1699 132.775 52.1699Z" fill="#0C0020"/>
<path d="M106.444 53.3291C105.984 52.9611 105.57 52.8691 105.58 52.8001C105.589 52.7311 105.81 52.7587 106.196 52.6392C106.745 52.5139 107.235 52.204 107.583 51.7611C107.931 51.3183 108.117 50.7693 108.109 50.206C108.109 48.1224 106.67 47.5566 104.586 47.5566H100.75V56.4154C101.004 56.4694 101.263 56.4956 101.523 56.4936C101.782 56.4949 102.041 56.4687 102.295 56.4154V53.0393H103.289C103.857 52.9874 104.427 53.1214 104.913 53.4211C105.381 53.8177 105.775 54.2942 106.076 54.8286C106.329 55.2195 106.955 56.4016 106.955 56.4016C107.258 56.4563 107.566 56.4825 107.875 56.4798C108.173 56.4841 108.471 56.4437 108.758 56.3602C108.758 56.3602 107.838 54.8653 107.429 54.3548C107.142 53.9755 106.811 53.6313 106.444 53.3291ZM104.342 51.7376H102.314V48.8629H104.614C105.948 48.8629 106.568 49.1251 106.568 50.2106C106.568 51.2961 105.676 51.7376 104.342 51.7376Z" fill="#0C0020"/>
<path d="M125.736 47.5705V52.8278C125.736 54.2536 124.895 55.1552 123.501 55.1552C122.107 55.1552 121.266 54.2352 121.266 52.8278V47.5705C121.01 47.5165 120.749 47.4903 120.488 47.4923C120.227 47.4909 119.967 47.5171 119.711 47.5705V52.8784C119.711 55.468 121.371 56.5994 123.496 56.5994C125.621 56.5994 127.282 55.468 127.282 52.8784V47.5705C127.026 47.5165 126.766 47.4903 126.505 47.4923C126.246 47.4916 125.989 47.5178 125.736 47.5705Z" fill="#0C0020"/>
<path d="M94.9385 48.8173C95.5213 48.7951 96.0999 48.924 96.6182 49.1916C97.1364 49.4592 97.5766 49.8563 97.896 50.3443L99.0367 49.5026C98.011 48.0905 96.8979 47.4006 94.8143 47.4006C94.2129 47.3948 93.6165 47.5104 93.061 47.7407C92.5054 47.9709 92.002 48.311 91.5811 48.7406C91.1601 49.1701 90.8303 49.6802 90.6113 50.2404C90.3923 50.8005 90.2887 51.399 90.3067 52.0002C90.3067 54.6725 92.1925 56.5997 94.5291 56.5997C95.1325 56.5999 95.7299 56.4794 96.2861 56.2456C96.6429 56.1093 96.9825 55.9318 97.298 55.7166C97.4222 55.6338 97.5648 55.5326 97.6568 55.5694C97.7488 55.6062 97.7396 55.6844 97.7396 55.781C97.7396 56.0616 97.7396 56.3974 97.7396 56.3974C97.9312 56.4508 98.1294 56.4772 98.3283 56.4755C98.5302 56.4775 98.7309 56.4448 98.9217 56.379V51.6598H94.9523V52.9201H97.5602C97.5602 53.8676 96.6955 55.1877 94.7407 55.1877C92.9008 55.1877 91.8154 53.7204 91.8154 52.0232C91.8068 51.6068 91.8812 51.1928 92.0341 50.8054C92.1869 50.418 92.4153 50.0649 92.706 49.7666C92.9966 49.4683 93.3436 49.2307 93.7269 49.0677C94.1102 48.9048 94.522 48.8196 94.9385 48.8173Z" fill="#0C0020"/>
<path d="M113.803 47.4004C112.893 47.4004 112.004 47.6701 111.247 48.1756C110.491 48.681 109.901 49.3993 109.553 50.2398C109.205 51.0802 109.114 52.0051 109.292 52.8973C109.469 53.7895 109.907 54.6091 110.55 55.2524C111.194 55.8956 112.013 56.3337 112.905 56.5111C113.798 56.6886 114.722 56.5975 115.563 56.2494C116.403 55.9013 117.122 55.3117 117.627 54.5554C118.133 53.799 118.402 52.9097 118.402 52C118.402 50.7801 117.918 49.6102 117.055 48.7476C116.192 47.885 115.023 47.4004 113.803 47.4004ZM113.803 55.0633C113.197 55.0633 112.605 54.8836 112.101 54.547C111.597 54.2104 111.204 53.732 110.973 53.1723C110.741 52.6125 110.68 51.9966 110.798 51.4023C110.916 50.8081 111.208 50.2623 111.637 49.8339C112.065 49.4054 112.611 49.1137 113.205 48.9955C113.799 48.8773 114.415 48.938 114.975 49.1698C115.535 49.4017 116.013 49.7943 116.35 50.2981C116.686 50.8018 116.866 51.3941 116.866 52C116.866 52.8116 116.544 53.5901 115.97 54.1644C115.397 54.7388 114.619 55.0621 113.807 55.0633H113.803Z" fill="#0C0020"/>
<path d="M79.7031 48.9812H82.9228V56.4096C83.1939 56.4636 83.4698 56.4898 83.7462 56.4877C84.0225 56.4892 84.2983 56.463 84.5695 56.4096V48.9812H87.7892V47.5508H79.7031V48.9812Z" fill="#0C0020"/>
<path d="M76.8694 47.547V53.9864C75.5129 51.737 74.0005 49.5853 72.3435 47.547C72.0926 47.4931 71.8365 47.4669 71.5799 47.4689C71.3233 47.4674 71.0674 47.4936 70.8164 47.547V56.4104C71.0657 56.4644 71.3202 56.4906 71.5753 56.4886C71.8304 56.49 72.0848 56.4638 72.3343 56.4104V49.5433C73.9533 51.7741 75.4758 54.0738 76.8418 56.4104C77.0943 56.4643 77.3518 56.4905 77.61 56.4886C77.8681 56.4898 78.1255 56.4636 78.3781 56.4104V47.547C78.1288 47.493 77.8742 47.4668 77.6192 47.4689C77.3672 47.4681 77.1158 47.4943 76.8694 47.547Z" fill="#0C0020"/>
<path d="M69.6799 56.3467L69.6247 56.1535L69.5695 55.9649L69.3395 55.206L69.2245 54.8242L69.1003 54.447L68.852 53.6927C68.7692 53.4397 68.6772 53.1913 68.5898 52.943L68.461 52.5704C68.4196 52.4462 68.369 52.322 68.323 52.1978L68.047 51.4527C67.6653 50.4638 67.2605 49.4841 66.8236 48.5182C66.7132 48.2744 66.6028 48.0352 66.4878 47.7961L66.359 47.5293H64.2754L64.142 47.8099C64.027 48.049 63.9212 48.2698 63.8108 48.532C63.3785 49.4979 62.9737 50.4776 62.5966 51.4665L62.3206 52.2117C62.2746 52.3358 62.2286 52.46 62.1826 52.5842L62.0492 52.9568C61.9618 53.2052 61.8744 53.4535 61.787 53.7065L61.5387 54.4608L61.4145 54.838L61.2949 55.2152L61.0603 55.9741C61.0189 56.0983 60.9821 56.2271 60.9453 56.3559V56.4202C61.204 56.4738 61.4677 56.5001 61.7318 56.4985C61.9975 56.4996 62.2626 56.4733 62.523 56.4202L62.7437 55.6751L62.8541 55.3025L62.9737 54.9346L63.2819 54.0147C63.9598 53.9198 64.6457 53.8951 65.3287 53.9411C65.9856 53.9959 66.6322 54.1382 67.2513 54.3642C67.4491 54.4562 67.5411 54.5068 67.6055 54.6586L67.6929 54.93L67.8079 55.2979L67.9183 55.6705L68.1344 56.4157V56.4387C68.3928 56.4944 68.6567 56.5206 68.921 56.5168C69.1836 56.5174 69.4456 56.4912 69.7029 56.4387L69.6799 56.3467ZM65.3333 52.7866C64.7477 52.7962 64.166 52.8843 63.6039 53.0488C63.6315 52.9752 63.6867 52.7774 63.7097 52.7084L63.9718 51.9817C64.3352 51.0158 64.7124 50.0545 65.1263 49.1115L65.1953 48.9505C65.2367 48.8494 65.2827 48.8218 65.3287 48.8218C65.3747 48.8218 65.4161 48.8494 65.4529 48.9322L65.5311 49.1023C65.945 50.0223 66.3268 51.002 66.6902 51.9725L66.9523 52.6992L67.0351 52.9292C66.4741 52.8249 65.9039 52.7771 65.3333 52.7866Z" fill="#0C0020"/>
</g>
<defs>
<clipPath id="clip0_1767_237">
<rect width="107.616" height="34" fill="white" transform="translate(28.5469 25)"/>
</clipPath>
</defs>
</svg>
