<svg width="237" height="57" viewBox="0 0 237 57" fill="none" xmlns="http://www.w3.org/2000/svg">
<g clip-path="url(#clip0_1605_227)">
<path d="M11.6135 21.7363L1.94136 16.1546C1.07468 15.6693 0 16.2933 0 17.264V40.2147C0 41.2201 1.07468 41.8094 1.94136 41.3241L11.6135 35.7424C11.7868 35.6384 11.8561 35.4651 11.8561 35.2917V22.187C11.8908 22.0136 11.7868 21.8403 11.6135 21.7363Z" fill="#4F16A5"/>
<path d="M33.704 23.0187C34.5707 22.5333 34.5707 21.2852 33.704 20.7999L13.8398 9.32456C12.9731 8.8392 11.8984 9.46323 11.8984 10.434V21.5973C11.8984 21.7706 12.0024 21.9439 12.1411 22.048L23.4772 28.6003C23.6506 28.7043 23.8239 28.7043 23.9972 28.6003L33.704 23.0187Z" fill="#F9C346"/>
<path d="M13.8051 48.1878L33.6694 36.7124C34.536 36.2271 34.536 34.979 33.6694 34.4936L23.9972 28.912C23.8239 28.808 23.6506 28.808 23.4772 28.912L12.1411 35.4644C11.9678 35.5684 11.8984 35.7417 11.8984 35.9151V47.0784C11.8984 48.0491 12.9731 48.6731 13.8051 48.1878Z" fill="#E84E4E"/>
<path d="M59.4941 20.0063C60.0734 19.7746 60.7299 19.6588 61.5023 19.6588C62.8153 19.6588 63.9739 20.0063 64.978 20.7401C65.9821 21.4353 66.7545 22.4395 67.2565 23.714L71.8136 21.6284C71.3115 20.1994 70.5391 18.9636 69.535 17.9594C68.531 16.9553 67.3338 16.1443 65.9821 15.6036C64.5918 15.0629 63.1243 14.7539 61.5023 14.7539C59.6485 14.7539 58.0265 15.1015 56.6363 15.758C55.2073 16.4532 54.126 17.3801 53.3536 18.5774C52.5813 19.7746 52.1564 21.2036 52.1564 22.787C52.1564 24.6022 52.6971 26.1471 53.7784 27.4602C54.8598 28.7347 56.4818 29.7388 58.6445 30.434L63.9353 32.1719C64.7463 32.4423 65.3642 32.7899 65.7504 33.2533C66.1366 33.7168 66.3297 34.2574 66.3297 34.8754C66.3297 35.4547 66.1752 35.9568 65.8662 36.3816C65.5573 36.8064 65.1325 37.154 64.5532 37.3857C64.0125 37.6175 63.3174 37.7333 62.545 37.7333C61.0775 37.7333 59.7644 37.3085 58.5672 36.4588C57.37 35.6092 56.4432 34.4506 55.748 32.983L51.1523 35.0685C51.693 36.6133 52.504 37.965 53.5467 39.0851C54.6281 40.2051 55.9025 41.0933 57.4086 41.7113C58.8762 42.3292 60.4982 42.6382 62.1588 42.6382C64.0511 42.6382 65.7504 42.2906 67.1793 41.5954C68.6082 40.9002 69.7281 39.9347 70.5778 38.7375C71.3888 37.5016 71.8136 36.1112 71.8136 34.5664C71.8136 32.7512 71.2729 31.2064 70.1916 29.9705C69.1102 28.696 67.4882 27.7305 65.3256 27.0353L60.1506 25.3746C59.3396 25.1043 58.7217 24.7567 58.2969 24.2546C57.8721 23.7912 57.679 23.2505 57.679 22.5939C57.679 22.0146 57.8335 21.5126 58.1424 21.0491C58.49 20.6243 58.9148 20.2767 59.4941 20.0063Z" fill="#160038"/>
<path d="M89.2388 23.3263C87.6554 22.4381 85.8789 21.9746 83.9093 21.9746C81.9397 21.9746 80.1633 22.4381 78.5799 23.3263C76.9579 24.2146 75.6835 25.4505 74.718 26.9953C73.7525 28.5402 73.2891 30.3167 73.2891 32.325C73.2891 34.2947 73.7525 36.0712 74.718 37.6547C75.6835 39.1995 76.9579 40.4354 78.5799 41.3237C80.2019 42.2119 81.9784 42.6754 83.9093 42.6754C85.8789 42.6754 87.6554 42.2119 89.2388 41.3237C90.8222 40.4354 92.0966 39.1995 93.0621 37.6547C94.0275 36.1098 94.491 34.3333 94.491 32.325C94.491 30.3167 94.0275 28.5402 93.0621 26.9953C92.0966 25.4505 90.8222 24.2146 89.2388 23.3263ZM88.2347 35.1443C87.8099 35.9554 87.2306 36.6119 86.4968 37.0754C85.763 37.5388 84.9134 37.7705 83.9093 37.7705C82.9052 37.7705 82.0556 37.5388 81.2832 37.0754C80.5495 36.6119 79.9316 35.994 79.5067 35.1443C79.0819 34.3333 78.8888 33.3678 78.8888 32.325C78.8888 31.2436 79.0819 30.3167 79.5067 29.5057C79.9316 28.6946 80.5108 28.0381 81.2832 27.5746C82.017 27.1112 82.9052 26.8795 83.9093 26.8795C84.9134 26.8795 85.763 27.1112 86.4968 27.5746C87.2306 28.0381 87.8099 28.6946 88.2347 29.5057C88.6595 30.3167 88.8526 31.2436 88.8526 32.325C88.8526 33.3678 88.6595 34.3333 88.2347 35.1443Z" fill="#160038"/>
<path d="M105.454 20.9719C106.652 20.2381 108.08 19.8519 109.664 19.8519C111.324 19.8519 112.715 20.2767 113.835 21.1264C114.993 21.976 115.804 23.0574 116.229 24.3705L121.211 21.976C120.747 20.6629 119.975 19.427 118.894 18.3456C117.812 17.2643 116.499 16.376 114.916 15.7194C113.371 15.0629 111.595 14.7539 109.625 14.7539C107.656 14.7539 105.879 15.1015 104.219 15.7967C102.558 16.4918 101.129 17.4574 99.8932 18.6932C98.6574 19.9291 97.6919 21.3967 97.0353 23.1346C96.3402 24.834 96.0312 26.6878 96.0312 28.696C96.0312 30.7043 96.3788 32.5581 97.074 34.2574C97.7691 35.9568 98.7346 37.4244 99.9704 38.6988C101.206 39.9733 102.635 40.9389 104.296 41.634C105.956 42.3292 107.733 42.6768 109.664 42.6768C111.633 42.6768 113.371 42.3678 114.955 41.7113C116.499 41.0547 117.851 40.2051 118.932 39.0851C120.014 38.0037 120.786 36.8064 121.25 35.4547L116.268 33.0602C115.804 34.3733 114.993 35.4547 113.873 36.3044C112.715 37.154 111.324 37.5788 109.702 37.5788C108.119 37.5788 106.69 37.1926 105.493 36.4588C104.296 35.725 103.33 34.6823 102.674 33.3305C102.017 32.0174 101.67 30.4726 101.67 28.696C101.67 26.9195 102.017 25.3746 102.674 24.0615C103.292 22.7484 104.219 21.7057 105.454 20.9719Z" fill="#160038"/>
<path d="M129.898 23.0953C129.126 23.5588 128.546 24.2926 128.122 25.3739V22.4001H123.062V42.2126H128.508V31.5533C128.508 30.0857 128.933 28.9271 129.744 28.116C130.555 27.305 131.636 26.9188 132.988 26.9188H134.687V22.207H133.528C132.061 22.207 130.902 22.4774 129.898 23.0953Z" fill="#160038"/>
<path d="M151.909 24.7939C151.059 23.9057 150.055 23.2105 148.858 22.7084C147.661 22.2063 146.27 21.9746 144.687 21.9746C142.794 21.9746 141.095 22.4381 139.628 23.3263C138.122 24.2146 136.924 25.4505 136.075 26.9953C135.187 28.5402 134.762 30.3167 134.762 32.2864C134.762 34.1788 135.187 35.9167 136.036 37.5002C136.886 39.0837 138.083 40.3195 139.628 41.2464C141.172 42.1733 142.988 42.6368 145.112 42.6368C146.463 42.6368 147.699 42.4437 148.858 42.0575C149.978 41.6713 150.982 41.0919 151.831 40.3581C152.681 39.6243 153.26 38.7747 153.646 37.8092L149.283 35.7236C148.896 36.4188 148.356 36.9209 147.661 37.3071C146.965 37.6933 146.154 37.8864 145.189 37.8864C144.108 37.8864 143.219 37.6547 142.486 37.1912C141.752 36.7278 141.172 36.0712 140.825 35.2216C140.632 34.7967 140.516 34.2947 140.439 33.7926H154.303C154.38 33.5223 154.457 33.2133 154.496 32.8271C154.535 32.4409 154.535 32.0547 154.535 31.6684C154.535 30.2781 154.303 29.0036 153.878 27.845C153.376 26.725 152.758 25.7208 151.909 24.7939ZM142.254 27.0339C142.949 26.5705 143.721 26.3388 144.687 26.3388C145.652 26.3388 146.463 26.5705 147.12 27.0339C147.776 27.4974 148.24 28.1539 148.51 28.965C148.587 29.2353 148.665 29.5443 148.665 29.8533H140.516C140.593 29.5829 140.67 29.3126 140.748 29.0422C141.095 28.1539 141.597 27.4974 142.254 27.0339Z" fill="#160038"/>
<path d="M169.211 22.9059C167.937 22.2879 166.469 22.0176 164.77 22.0176C163.38 22.0176 162.066 22.2493 160.908 22.6741C159.711 23.099 158.707 23.7169 157.857 24.5279C157.007 25.339 156.389 26.2659 156.003 27.3859L160.367 29.4714C160.715 28.5831 161.255 27.888 161.989 27.3859C162.723 26.8452 163.573 26.5748 164.538 26.5748C165.542 26.5748 166.353 26.8452 166.933 27.3473C167.512 27.8493 167.821 28.4673 167.821 29.2397V29.7804L162.337 30.6687C160.753 30.9004 159.44 31.3252 158.398 31.9045C157.355 32.4838 156.583 33.2176 156.042 34.0673C155.54 34.9169 155.27 35.9211 155.27 37.0411C155.27 38.2383 155.54 39.2425 156.119 40.0921C156.66 40.9418 157.471 41.5984 158.514 42.0618C159.556 42.5253 160.792 42.757 162.221 42.757C163.302 42.757 164.268 42.6025 165.117 42.3322C166.006 42.0618 166.778 41.637 167.473 41.0577C167.705 40.8646 167.937 40.6328 168.168 40.4397V42.3322H173.227V29.2783C173.227 27.8493 172.88 26.6135 172.146 25.5321C171.49 24.3348 170.485 23.4852 169.211 22.9059ZM167.28 36.5004C166.894 37.157 166.392 37.6977 165.697 38.0839C165.002 38.4701 164.229 38.6632 163.341 38.6632C162.646 38.6632 162.105 38.5087 161.642 38.1611C161.178 37.8135 160.947 37.3501 160.947 36.7321C160.947 36.0756 161.14 35.5735 161.564 35.2259C161.989 34.8783 162.569 34.6466 163.341 34.4921L167.821 33.6811V34.299C167.821 35.1101 167.666 35.8439 167.28 36.5004Z" fill="#160038"/>
<path d="M183.157 17.918H177.711V19.3856C177.711 20.3897 177.441 21.1621 176.9 21.6642C176.36 22.1663 175.587 22.4366 174.545 22.4366H174.352V27.1484H177.673V35.0656C177.673 37.3829 178.329 39.1981 179.642 40.4726C180.955 41.747 182.809 42.4036 185.204 42.4036C185.628 42.4036 186.053 42.365 186.517 42.3264C186.98 42.2877 187.405 42.2105 187.752 42.1719V37.576C187.521 37.6146 187.289 37.6146 187.057 37.6532C186.826 37.6919 186.632 37.6919 186.478 37.6919C185.744 37.6919 185.088 37.576 184.586 37.3829C184.084 37.1512 183.697 36.8422 183.466 36.3787C183.234 35.9153 183.118 35.3746 183.118 34.6794V27.1097H187.752V22.398H183.118V17.918H183.157Z" fill="#160038"/>
<path d="M192.969 20.6237C194.475 20.6237 195.672 19.3879 195.672 17.9203C195.672 16.414 194.436 15.2168 192.969 15.2168C191.463 15.2168 190.266 16.4527 190.266 17.9203C190.266 19.4265 191.501 20.6237 192.969 20.6237Z" fill="#160038"/>
<path d="M195.711 22.4004H190.266V42.2129H195.711V22.4004Z" fill="#160038"/>
<path d="M211.19 22.4004L206.942 34.257L202.655 22.4004H196.785L204.586 42.2129H209.298L217.099 22.4004H211.19Z" fill="#160038"/>
<path d="M235.445 27.9266C235.021 26.7679 234.364 25.7252 233.553 24.8369C232.704 23.9486 231.699 23.2534 230.502 22.7514C229.305 22.2493 227.915 22.0176 226.331 22.0176C224.439 22.0176 222.74 22.481 221.272 23.3693C219.766 24.2576 218.569 25.4935 217.719 27.0383C216.831 28.5831 216.406 30.3597 216.406 32.3293C216.406 34.2218 216.831 35.9597 217.681 37.5432C218.53 39.1266 219.727 40.3625 221.272 41.2894C222.817 42.2163 224.632 42.6797 226.756 42.6797C228.108 42.6797 229.344 42.4866 230.502 42.1004C231.622 41.7142 232.626 41.1349 233.476 40.4011C234.326 39.6673 234.905 38.8177 235.291 37.8521L230.927 35.7666C230.541 36.4618 230 36.9639 229.305 37.3501C228.61 37.7363 227.799 37.9294 226.833 37.9294C225.752 37.9294 224.864 37.6977 224.13 37.2342C223.396 36.7708 222.817 36.1142 222.469 35.2645C222.276 34.8397 222.161 34.3376 222.083 33.8356H235.948C236.025 33.5652 236.102 33.2563 236.141 32.87C236.179 32.4838 236.179 32.0976 236.179 31.7114C236.063 30.3597 235.87 29.0852 235.445 27.9266ZM223.86 27.0383C224.555 26.5748 225.327 26.3431 226.293 26.3431C227.258 26.3431 228.069 26.5748 228.726 27.0383C229.382 27.5017 229.846 28.1583 230.116 28.9693C230.193 29.2397 230.271 29.5486 230.271 29.8576H222.083C222.161 29.5873 222.238 29.3169 222.315 29.0466C222.663 28.1583 223.203 27.5017 223.86 27.0383Z" fill="#160038"/>
</g>
<defs>
<clipPath id="clip0_1605_227">
<rect width="236.181" height="55.9999" fill="white" transform="translate(0 0.755859)"/>
</clipPath>
</defs>
</svg>
