<svg width="169" height="48" viewBox="0 0 169 48" fill="none" xmlns="http://www.w3.org/2000/svg">
<g clip-path="url(#clip0_1595_2155)">
<path d="M8.29568 18.986L1.38674 14.9991C0.767659 14.6524 0 15.0982 0 15.7915V32.1848C0 32.9029 0.767659 33.3239 1.38674 32.9772L8.29568 28.9903C8.41949 28.9161 8.46902 28.7922 8.46902 28.6684V19.3079C8.49378 19.1841 8.41949 19.0603 8.29568 18.986Z" fill="#4F16A5"/>
<path d="M24.0682 19.9017C24.6873 19.555 24.6873 18.6635 24.0682 18.3168L9.87893 10.1202C9.25984 9.77353 8.49219 10.2193 8.49219 10.9126V18.8864C8.49219 19.0102 8.56648 19.134 8.66553 19.2083L16.7631 23.8886C16.8869 23.9629 17.0107 23.9629 17.1345 23.8886L24.0682 19.9017Z" fill="#F9C346"/>
<path d="M9.85416 37.8807L24.0435 29.6841C24.6626 29.3374 24.6626 28.4459 24.0435 28.0992L17.1345 24.1124C17.0107 24.0381 16.8869 24.0381 16.7631 24.1124L8.66553 28.7926C8.54171 28.8669 8.49219 28.9907 8.49219 29.1145V37.0883C8.49219 37.7816 9.25985 38.2274 9.85416 37.8807Z" fill="#E84E4E"/>
<path d="M42.4938 17.7517C42.9076 17.5862 43.3765 17.5034 43.9283 17.5034C44.8662 17.5034 45.6938 17.7517 46.411 18.2759C47.1283 18.7724 47.68 19.4897 48.0386 20.4L51.2938 18.9103C50.9352 17.8897 50.3834 17.0069 49.6662 16.2897C48.949 15.5724 48.0938 14.9931 47.1283 14.6069C46.1352 14.2207 45.0869 14 43.9283 14C42.6041 14 41.4455 14.2483 40.4524 14.7172C39.4317 15.2138 38.6593 15.8759 38.1076 16.731C37.5558 17.5862 37.2524 18.6069 37.2524 19.7379C37.2524 21.0345 37.6386 22.1379 38.411 23.0759C39.1834 23.9862 40.3421 24.7034 41.8869 25.2L45.6662 26.4414C46.2455 26.6345 46.6869 26.8828 46.9627 27.2138C47.2386 27.5448 47.3765 27.931 47.3765 28.3724C47.3765 28.7862 47.2662 29.1448 47.0455 29.4483C46.8248 29.7517 46.5214 30 46.1076 30.1655C45.7214 30.331 45.2248 30.4138 44.6731 30.4138C43.6248 30.4138 42.6869 30.1103 41.8317 29.5035C40.9765 28.8966 40.3145 28.069 39.8179 27.0207L36.5352 28.5103C36.9214 29.6138 37.5007 30.5793 38.2455 31.3793C39.0179 32.1793 39.9283 32.8138 41.0041 33.2552C42.0524 33.6966 43.211 33.9172 44.3972 33.9172C45.749 33.9172 46.9627 33.669 47.9834 33.1724C49.0041 32.6759 49.8041 31.9862 50.411 31.131C50.9903 30.2483 51.2938 29.2552 51.2938 28.1517C51.2938 26.8552 50.9076 25.7517 50.1352 24.869C49.3627 23.9586 48.2041 23.269 46.6593 22.7724L42.9627 21.5862C42.3834 21.3931 41.9421 21.1448 41.6386 20.7862C41.3352 20.4552 41.1972 20.069 41.1972 19.6C41.1972 19.1862 41.3076 18.8276 41.5283 18.4966C41.7765 18.1931 42.08 17.9448 42.4938 17.7517Z" fill="#160038"/>
<path d="M63.7369 20.1237C62.6058 19.4892 61.3369 19.1582 59.93 19.1582C58.5231 19.1582 57.2541 19.4892 56.1231 20.1237C54.9644 20.7582 54.0541 21.641 53.3644 22.7444C52.6748 23.8479 52.3438 25.1168 52.3438 26.5513C52.3438 27.9582 52.6748 29.2272 53.3644 30.3582C54.0541 31.4617 54.9644 32.3444 56.1231 32.9789C57.2817 33.6134 58.5506 33.9444 59.93 33.9444C61.3369 33.9444 62.6058 33.6134 63.7369 32.9789C64.8679 32.3444 65.7782 31.4617 66.4679 30.3582C67.1575 29.2548 67.4886 27.9858 67.4886 26.5513C67.4886 25.1168 67.1575 23.8479 66.4679 22.7444C65.7782 21.641 64.8679 20.7582 63.7369 20.1237ZM63.0196 28.5651C62.7162 29.1444 62.3024 29.6134 61.7782 29.9444C61.2541 30.2754 60.6472 30.441 59.93 30.441C59.2127 30.441 58.6058 30.2754 58.0541 29.9444C57.53 29.6134 57.0886 29.172 56.7851 28.5651C56.4817 27.9858 56.3438 27.2961 56.3438 26.5513C56.3438 25.7789 56.4817 25.1168 56.7851 24.5375C57.0886 23.9582 57.5024 23.4892 58.0541 23.1582C58.5782 22.8272 59.2127 22.6617 59.93 22.6617C60.6472 22.6617 61.2541 22.8272 61.7782 23.1582C62.3024 23.4892 62.7162 23.9582 63.0196 24.5375C63.3231 25.1168 63.461 25.7789 63.461 26.5513C63.461 27.2961 63.3231 27.9858 63.0196 28.5651Z" fill="#160038"/>
<path d="M75.3209 18.4414C76.1761 17.9172 77.1967 17.6414 78.3278 17.6414C79.514 17.6414 80.5071 17.9448 81.3071 18.5517C82.1347 19.1586 82.714 19.931 83.0174 20.869L86.5761 19.1586C86.245 18.2207 85.6933 17.3379 84.9209 16.5655C84.1485 15.7931 83.2105 15.1586 82.0795 14.6897C80.9761 14.2207 79.7071 14 78.3002 14C76.8933 14 75.6243 14.2483 74.4381 14.7448C73.2519 15.2414 72.2312 15.931 71.3485 16.8138C70.4657 17.6966 69.7761 18.7448 69.3071 19.9862C68.8105 21.2 68.5898 22.5241 68.5898 23.9586C68.5898 25.3931 68.8381 26.7172 69.3347 27.931C69.8312 29.1448 70.5209 30.1931 71.4036 31.1034C72.2864 32.0138 73.3071 32.7034 74.4933 33.2C75.6795 33.6966 76.9485 33.9448 78.3278 33.9448C79.7347 33.9448 80.9761 33.7241 82.1071 33.2552C83.2105 32.7862 84.1761 32.1793 84.9485 31.3793C85.7209 30.6069 86.2726 29.7517 86.6036 28.7862L83.045 27.0759C82.714 28.0138 82.1347 28.7862 81.3347 29.3931C80.5071 30 79.514 30.3034 78.3554 30.3034C77.2243 30.3034 76.2036 30.0276 75.3485 29.5035C74.4933 28.9793 73.8036 28.2345 73.3347 27.269C72.8657 26.331 72.6174 25.2276 72.6174 23.9586C72.6174 22.6897 72.8657 21.5862 73.3347 20.6483C73.7761 19.7103 74.4381 18.9655 75.3209 18.4414Z" fill="#160038"/>
<path d="M92.7851 19.9587C92.2334 20.2897 91.8196 20.8139 91.5161 21.5863V19.4621H87.9023V33.6139H91.792V26.0001C91.792 24.9518 92.0955 24.1242 92.6748 23.5449C93.2541 22.9656 94.0265 22.6897 94.992 22.6897H96.2058V19.3242H95.3782C94.3299 19.3242 93.5023 19.5173 92.7851 19.9587Z" fill="#160038"/>
<path d="M108.506 21.172C107.899 20.5375 107.182 20.041 106.327 19.6823C105.472 19.3237 104.478 19.1582 103.347 19.1582C101.996 19.1582 100.782 19.4892 99.7337 20.1237C98.6578 20.7582 97.8026 21.641 97.1957 22.7444C96.5613 23.8479 96.2578 25.1168 96.2578 26.5237C96.2578 27.8754 96.5613 29.1168 97.1682 30.2479C97.7751 31.3789 98.6302 32.2617 99.7337 32.9237C100.837 33.5858 102.134 33.9168 103.651 33.9168C104.616 33.9168 105.499 33.7789 106.327 33.503C107.127 33.2272 107.844 32.8134 108.451 32.2892C109.058 31.7651 109.472 31.1582 109.747 30.4686L106.63 28.9789C106.354 29.4754 105.968 29.8341 105.472 30.1099C104.975 30.3858 104.396 30.5237 103.706 30.5237C102.934 30.5237 102.299 30.3582 101.775 30.0272C101.251 29.6961 100.837 29.2272 100.589 28.6203C100.451 28.3168 100.368 27.9582 100.313 27.5996H110.216C110.272 27.4065 110.327 27.1858 110.354 26.9099C110.382 26.6341 110.382 26.3582 110.382 26.0823C110.382 25.0892 110.216 24.1789 109.913 23.3513C109.554 22.5513 109.113 21.8341 108.506 21.172ZM101.61 22.772C102.106 22.441 102.658 22.2754 103.347 22.2754C104.037 22.2754 104.616 22.441 105.085 22.772C105.554 23.103 105.885 23.572 106.079 24.1513C106.134 24.3444 106.189 24.5651 106.189 24.7858H100.368C100.423 24.5927 100.479 24.3996 100.534 24.2065C100.782 23.572 101.141 23.103 101.61 22.772Z" fill="#160038"/>
<path d="M120.865 19.82C119.955 19.3787 118.906 19.1855 117.692 19.1855C116.699 19.1855 115.761 19.3511 114.934 19.6545C114.079 19.958 113.361 20.3993 112.755 20.9787C112.148 21.558 111.706 22.22 111.43 23.02L114.548 24.5097C114.796 23.8752 115.182 23.3787 115.706 23.02C116.23 22.6338 116.837 22.4407 117.527 22.4407C118.244 22.4407 118.823 22.6338 119.237 22.9924C119.651 23.3511 119.872 23.7924 119.872 24.3442V24.7304L115.955 25.3649C114.823 25.5304 113.886 25.8338 113.141 26.2476C112.396 26.6614 111.844 27.1855 111.458 27.7924C111.099 28.3993 110.906 29.1166 110.906 29.9166C110.906 30.7718 111.099 31.489 111.513 32.0959C111.899 32.7028 112.479 33.1718 113.223 33.5028C113.968 33.8338 114.851 33.9993 115.872 33.9993C116.644 33.9993 117.334 33.889 117.941 33.6959C118.575 33.5028 119.127 33.1993 119.623 32.7855C119.789 32.6476 119.955 32.4821 120.12 32.3442V33.6959H123.734V24.3718C123.734 23.3511 123.486 22.4683 122.961 21.6959C122.492 20.8407 121.775 20.2338 120.865 19.82ZM119.486 29.5304C119.21 29.9993 118.851 30.3855 118.355 30.6614C117.858 30.9373 117.306 31.0752 116.672 31.0752C116.175 31.0752 115.789 30.9649 115.458 30.7166C115.127 30.4683 114.961 30.1373 114.961 29.6959C114.961 29.2269 115.099 28.8683 115.403 28.62C115.706 28.3718 116.12 28.2062 116.672 28.0959L119.872 27.5166V27.958C119.872 28.5373 119.761 29.0614 119.486 29.5304Z" fill="#160038"/>
<path d="M130.825 16.2617H126.935V17.31C126.935 18.0272 126.742 18.579 126.356 18.9376C125.97 19.2962 125.418 19.4893 124.673 19.4893H124.535V22.8548H126.908V28.51C126.908 30.1652 127.377 31.4617 128.314 32.3721C129.252 33.2824 130.577 33.7514 132.287 33.7514C132.59 33.7514 132.894 33.7238 133.225 33.6962C133.556 33.6686 133.859 33.6134 134.108 33.5859V30.3031C133.942 30.3307 133.777 30.3307 133.611 30.3583C133.446 30.3859 133.308 30.3859 133.197 30.3859C132.673 30.3859 132.204 30.3031 131.846 30.1652C131.487 29.9997 131.211 29.779 131.046 29.4479C130.88 29.1169 130.797 28.7307 130.797 28.2341V22.8272H134.108V19.4617H130.797V16.2617H130.825Z" fill="#160038"/>
<path d="M137.833 18.1921C138.909 18.1921 139.764 17.3094 139.764 16.2611C139.764 15.1853 138.882 14.3301 137.833 14.3301C136.758 14.3301 135.902 15.2128 135.902 16.2611C135.902 17.337 136.785 18.1921 137.833 18.1921Z" fill="#160038"/>
<path d="M139.792 19.4629H135.902V33.6146H139.792V19.4629Z" fill="#160038"/>
<path d="M150.852 19.4629L147.818 27.9319L144.756 19.4629H140.562L146.135 33.6146H149.5L155.073 19.4629H150.852Z" fill="#160038"/>
<path d="M168.178 23.4062C167.875 22.5787 167.406 21.8338 166.826 21.1993C166.22 20.5649 165.502 20.0683 164.647 19.7097C163.792 19.3511 162.799 19.1855 161.668 19.1855C160.316 19.1855 159.102 19.5166 158.054 20.1511C156.978 20.7855 156.123 21.6683 155.516 22.7718C154.882 23.8752 154.578 25.1442 154.578 26.5511C154.578 27.9028 154.882 29.1442 155.488 30.2752C156.095 31.4062 156.951 32.289 158.054 32.9511C159.157 33.6131 160.454 33.9442 161.971 33.9442C162.937 33.9442 163.82 33.8062 164.647 33.5304C165.447 33.2545 166.164 32.8407 166.771 32.3166C167.378 31.7924 167.792 31.1855 168.068 30.4959L164.951 29.0062C164.675 29.5028 164.288 29.8614 163.792 30.1373C163.295 30.4131 162.716 30.5511 162.026 30.5511C161.254 30.5511 160.62 30.3856 160.095 30.0545C159.571 29.7235 159.157 29.2545 158.909 28.6476C158.771 28.3442 158.688 27.9855 158.633 27.6269H168.537C168.592 27.4338 168.647 27.2131 168.675 26.9373C168.702 26.6614 168.702 26.3855 168.702 26.1097C168.62 25.1442 168.482 24.2338 168.178 23.4062ZM159.902 22.7718C160.399 22.4407 160.951 22.2752 161.64 22.2752C162.33 22.2752 162.909 22.4407 163.378 22.7718C163.847 23.1028 164.178 23.5718 164.371 24.1511C164.426 24.3442 164.482 24.5649 164.482 24.7855H158.633C158.688 24.5924 158.744 24.3993 158.799 24.2062C159.047 23.5718 159.433 23.1028 159.902 22.7718Z" fill="#160038"/>
</g>
<defs>
<clipPath id="clip0_1595_2155">
<rect width="168.7" height="48" fill="white"/>
</clipPath>
</defs>
</svg>
