<svg width="301" height="46" viewBox="0 0 301 46" fill="none" xmlns="http://www.w3.org/2000/svg">
<path d="M14.0252 8.52803C14.9644 8.15231 16.0289 7.96445 17.2812 7.96445C19.4102 7.96445 21.2887 8.52804 22.9167 9.71781C24.5447 10.845 25.7971 12.4731 26.6111 14.5396L33.9999 11.1581C33.1858 8.84113 31.9335 6.83729 30.3055 5.20917C28.6775 3.58105 26.7363 2.26604 24.5448 1.38936C22.2906 0.512677 19.9111 0.0117188 17.2812 0.0117188C14.2756 0.0117188 11.6457 0.575298 9.39154 1.63984C7.07473 2.767 5.32147 4.26988 4.06914 6.2111C2.81681 8.15232 2.12802 10.4693 2.12802 13.0367C2.12802 15.9798 3.00465 18.4846 4.75792 20.6137C6.51118 22.6801 9.14108 24.3083 12.6476 25.4354L21.2261 28.2533C22.541 28.6917 23.5429 29.2552 24.169 30.0067C24.7952 30.7581 25.1083 31.6348 25.1083 32.6367C25.1083 33.576 24.8578 34.3901 24.3569 35.0789C23.856 35.7677 23.1672 36.3313 22.2279 36.707C21.3513 37.0827 20.2242 37.2706 18.9719 37.2706C16.5925 37.2706 14.4635 36.5818 12.5224 35.2041C10.5813 33.8265 9.07846 31.9479 7.95137 29.5683L0.5 32.9498C1.37663 35.4546 2.69158 37.6463 4.38222 39.4623C6.13549 41.2783 8.20182 42.7185 10.6439 43.7205C13.0233 44.7224 15.6532 45.2233 18.3457 45.2233C21.4139 45.2233 24.1691 44.6598 26.4859 43.5326C28.8027 42.4054 30.6186 40.8399 31.9961 38.8987C33.3111 36.8949 33.9999 34.6406 33.9999 32.1358C33.9999 29.1926 33.1232 26.6878 31.37 24.684C29.6167 22.6175 26.9868 21.052 23.4803 19.9249L15.0896 17.2322C13.7747 16.7939 12.7728 16.2303 12.0841 15.4162C11.3953 14.6648 11.0822 13.7881 11.0822 12.7236C11.0822 11.7843 11.3327 10.9702 11.8336 10.2188C12.3971 9.52995 13.0859 8.96637 14.0252 8.52803Z" fill="#0C0020"/>
<path d="M62.2552 13.9105C59.6879 12.4702 56.8075 11.7188 53.6141 11.7188C50.4206 11.7188 47.5403 12.4702 44.973 13.9105C42.3431 15.3507 40.2768 17.3546 38.7114 19.8594C37.1459 22.3642 36.3945 25.2447 36.3945 28.5009C36.3945 31.6945 37.1459 34.575 38.7114 37.1425C40.2768 39.6473 42.3431 41.6511 44.973 43.0914C47.6029 44.5316 50.4833 45.2831 53.6141 45.2831C56.8075 45.2831 59.6879 44.5316 62.2552 43.0914C64.8225 41.6511 66.8888 39.6473 68.4542 37.1425C70.0196 34.6377 70.771 31.7571 70.771 28.5009C70.771 25.2447 70.0196 22.3642 68.4542 19.8594C66.8888 17.3546 64.8225 15.3507 62.2552 13.9105ZM60.6271 33.0722C59.9384 34.3872 58.9991 35.4517 57.8094 36.2032C56.6197 36.9546 55.2421 37.3303 53.6141 37.3303C51.9861 37.3303 50.6085 36.9546 49.3562 36.2032C48.1664 35.4517 47.1646 34.4498 46.4758 33.0722C45.787 31.7571 45.4739 30.1916 45.4739 28.5009C45.4739 26.7475 45.787 25.2447 46.4758 23.9297C47.1646 22.6146 48.1038 21.5501 49.3562 20.7987C50.5459 20.0472 51.9861 19.6715 53.6141 19.6715C55.2421 19.6715 56.6197 20.0472 57.8094 20.7987C58.9991 21.5501 59.9384 22.6146 60.6271 23.9297C61.3159 25.2447 61.629 26.7475 61.629 28.5009C61.629 30.1916 61.3159 31.7571 60.6271 33.0722Z" fill="#0C0020"/>
<path d="M88.5441 10.0935C90.4852 8.90376 92.802 8.27755 95.3693 8.27755C98.0618 8.27755 100.316 8.96638 102.132 10.344C104.01 11.7217 105.325 13.475 106.014 15.6041L114.092 11.7217C113.34 9.59257 112.088 7.58873 110.335 5.83537C108.581 4.08201 106.452 2.64176 103.885 1.57722C101.38 0.512679 98.5001 0.0117188 95.3067 0.0117188C92.1132 0.0117188 89.2329 0.575297 86.5403 1.70246C83.8478 2.82962 81.531 4.39512 79.5273 6.39895C77.5236 8.40279 75.9581 10.7824 74.8937 13.6003C73.7666 16.3555 73.2656 19.3613 73.2656 22.6175C73.2656 25.8738 73.8292 28.8795 74.9563 31.6348C76.0834 34.3901 77.6488 36.7696 79.6525 38.8361C81.6562 40.9026 83.9731 42.4681 86.6656 43.5952C89.3581 44.7224 92.2384 45.286 95.3693 45.286C98.5627 45.286 101.38 44.785 103.948 43.7205C106.452 42.6559 108.644 41.2783 110.397 39.4623C112.151 37.7089 113.403 35.7677 114.154 33.576L106.077 29.6936C105.325 31.8227 104.01 33.576 102.194 34.9537C100.316 36.3313 98.0618 37.0201 95.4319 37.0201C92.8646 37.0201 90.5478 36.3939 88.6067 35.2042C86.6656 34.0144 85.1002 32.3236 84.0357 30.1319C82.9712 28.0028 82.4076 25.498 82.4076 22.6175C82.4076 19.737 82.9712 17.2322 84.0357 15.1031C85.0375 12.9741 86.5403 11.2833 88.5441 10.0935Z" fill="#0C0020"/>
<path d="M128.177 13.536C126.925 14.2874 125.985 15.4772 125.297 17.2305V12.4088H117.094V44.5329H125.923V27.2497C125.923 24.8702 126.611 22.9916 127.926 21.6766C129.241 20.3615 130.995 19.7353 133.186 19.7353H135.941V12.0957H134.063C131.683 12.0957 129.805 12.534 128.177 13.536Z" fill="#0C0020"/>
<path d="M163.864 16.29C162.487 14.8497 160.859 13.7226 158.918 12.9085C156.976 12.0945 154.722 11.7188 152.155 11.7188C149.087 11.7188 146.332 12.4702 143.952 13.9105C141.51 15.3507 139.569 17.3546 138.191 19.8594C136.751 22.3642 136.062 25.2447 136.062 28.4383C136.062 31.5067 136.751 34.3246 138.129 36.892C139.506 39.4594 141.448 41.4632 143.952 42.9661C146.457 44.469 149.4 45.2204 152.844 45.2204C155.035 45.2204 157.039 44.9073 158.918 44.2811C160.733 43.6549 162.361 42.7156 163.739 41.5259C165.117 40.3361 166.056 38.9584 166.682 37.3929L159.606 34.0115C158.98 35.1386 158.104 35.9527 156.976 36.5789C155.849 37.2051 154.534 37.5182 152.969 37.5182C151.216 37.5182 149.776 37.1425 148.586 36.391C147.396 35.6396 146.457 34.575 145.893 33.1974C145.58 32.5086 145.392 31.6945 145.267 30.8805H167.746C167.872 30.4421 167.997 29.9412 168.06 29.315C168.122 28.6888 168.122 28.0626 168.122 27.4364C168.122 25.182 167.746 23.1156 167.058 21.237C166.244 19.421 165.242 17.7929 163.864 16.29ZM148.21 19.922C149.337 19.1705 150.59 18.7948 152.155 18.7948C153.72 18.7948 155.035 19.1705 156.1 19.922C157.164 20.6734 157.916 21.7379 158.354 23.053C158.479 23.4913 158.604 23.9923 158.604 24.4932H145.392C145.518 24.0549 145.643 23.6165 145.768 23.1782C146.332 21.7379 147.146 20.6734 148.21 19.922Z" fill="#0C0020"/>
<path d="M191.917 13.2293C189.851 12.2274 187.471 11.7891 184.716 11.7891C182.462 11.7891 180.333 12.1648 178.455 12.8536C176.513 13.5424 174.885 14.5443 173.508 15.8594C172.13 17.1744 171.128 18.6773 170.502 20.4932L177.578 23.8747C178.141 22.4345 179.018 21.3073 180.208 20.4932C181.397 19.6166 182.775 19.1782 184.34 19.1782C185.969 19.1782 187.283 19.6166 188.223 20.4306C189.162 21.2447 189.663 22.2466 189.663 23.499V24.3757L180.771 25.8159C178.204 26.1917 176.075 26.8805 174.384 27.8198C172.694 28.7591 171.441 29.9489 170.565 31.3265C169.751 32.7041 169.312 34.3323 169.312 36.1482C169.312 38.0895 169.751 39.7176 170.69 41.0952C171.567 42.4729 172.882 43.5374 174.572 44.2888C176.263 45.0403 178.267 45.416 180.583 45.416C182.337 45.416 183.902 45.1655 185.28 44.7272C186.72 44.2888 187.972 43.6 189.099 42.6607C189.475 42.3476 189.851 41.9719 190.226 41.6588V44.7272H198.429V23.5616C198.429 21.2447 197.866 19.2408 196.676 17.4875C195.611 15.5463 193.983 14.1686 191.917 13.2293ZM188.786 35.2716C188.16 36.3361 187.346 37.2128 186.219 37.839C185.092 38.4652 183.84 38.7783 182.399 38.7783C181.272 38.7783 180.396 38.5278 179.644 37.9642C178.893 37.4006 178.517 36.6492 178.517 35.6473C178.517 34.5827 178.83 33.7687 179.519 33.2051C180.208 32.6415 181.147 32.2658 182.399 32.0153L189.663 30.7003V31.7022C189.663 33.0172 189.412 34.207 188.786 35.2716Z" fill="#0C0020"/>
<path d="M214.531 5.14258H205.702V7.52214C205.702 9.15026 205.263 10.4027 204.387 11.2167C203.51 12.0308 202.258 12.4691 200.567 12.4691H200.254V20.1088H205.639V32.9458C205.639 36.703 206.703 39.6462 208.832 41.7126C210.961 43.7791 213.967 44.8436 217.849 44.8436C218.538 44.8436 219.227 44.781 219.978 44.7184C220.73 44.6558 221.418 44.5305 221.982 44.4679V37.0161C221.606 37.0788 221.23 37.0788 220.855 37.1414C220.479 37.204 220.166 37.204 219.916 37.204C218.726 37.204 217.661 37.0161 216.847 36.703C216.033 36.3273 215.407 35.8264 215.031 35.0749C214.656 34.3235 214.468 33.4468 214.468 32.3196V20.0461H221.982V12.4065H214.468V5.14258H214.531Z" fill="#0C0020"/>
<path d="M230.438 9.52852C232.88 9.52852 234.821 7.52468 234.821 5.14512C234.821 2.70294 232.817 0.761719 230.438 0.761719C227.996 0.761719 226.055 2.76556 226.055 5.14512C226.055 7.5873 228.058 9.52852 230.438 9.52852Z" fill="#0C0020"/>
<path d="M234.884 12.4102H226.055V44.5342H234.884V12.4102Z" fill="#0C0020"/>
<path d="M259.985 12.4102L253.097 31.6345L246.147 12.4102H236.629L249.277 44.5342H256.917L269.565 12.4102H259.985Z" fill="#0C0020"/>
<path d="M299.311 21.3699C298.623 19.4913 297.558 17.8006 296.243 16.3603C294.866 14.9201 293.238 13.7929 291.296 12.9788C289.355 12.1648 287.101 11.7891 284.534 11.7891C281.466 11.7891 278.711 12.5405 276.331 13.9808C273.889 15.421 271.948 17.4249 270.57 19.9297C269.13 22.4345 268.441 25.315 268.441 28.5086C268.441 31.577 269.13 34.3949 270.508 36.9623C271.885 39.5297 273.826 41.5336 276.331 43.0364C278.836 44.5393 281.779 45.2907 285.223 45.2907C287.414 45.2907 289.418 44.9776 291.296 44.3514C293.112 43.7252 294.74 42.7859 296.118 41.5962C297.495 40.4064 298.435 39.0287 299.061 37.4632L291.985 34.0818C291.359 35.2089 290.482 36.023 289.355 36.6492C288.228 37.2754 286.913 37.5885 285.348 37.5885C283.595 37.5885 282.154 37.2128 280.965 36.4613C279.775 35.7099 278.836 34.6454 278.272 33.2677C277.959 32.5789 277.771 31.7648 277.646 30.9508H300.125C300.251 30.5124 300.376 30.0115 300.438 29.3853C300.501 28.7591 300.501 28.1329 300.501 27.5067C300.313 25.315 300 23.2485 299.311 21.3699ZM280.526 19.9297C281.653 19.1782 282.906 18.8025 284.471 18.8025C286.037 18.8025 287.352 19.1782 288.416 19.9297C289.481 20.6811 290.232 21.7456 290.67 23.0607C290.796 23.499 290.921 24 290.921 24.5009H277.646C277.771 24.0626 277.896 23.6242 278.022 23.1859C278.585 21.7456 279.462 20.6811 280.526 19.9297Z" fill="#0C0020"/>
</svg>
