<svg width="688" height="104" viewBox="0 0 688 104" fill="none" xmlns="http://www.w3.org/2000/svg">
<path d="M31.4726 19.516C33.6235 18.6556 36.0611 18.2254 38.9289 18.2254C43.8042 18.2254 48.106 19.516 51.8342 22.2406C55.5624 24.8218 58.4302 28.5502 60.2943 33.2823L77.2145 25.5388C75.3504 20.233 72.4826 15.6442 68.7544 11.9158C65.0262 8.18743 60.5811 5.17605 55.5624 3.16846C50.4003 1.16086 44.9514 0.0136719 38.9289 0.0136719C32.0461 0.0136719 26.0237 1.30426 20.8616 3.74206C15.5561 6.32325 11.5411 9.76484 8.67332 14.2102C5.80549 18.6556 4.22817 23.9614 4.22817 29.8407C4.22817 36.5805 6.23565 42.3165 10.2506 47.1921C14.2656 51.9243 20.288 55.6527 28.318 58.2338L47.9626 64.6868C50.9739 65.6906 53.2681 66.9812 54.702 68.702C56.1359 70.4228 56.8529 72.4304 56.8529 74.7248C56.8529 76.8758 56.2793 78.74 55.1322 80.3173C53.9851 81.8947 52.4077 83.1853 50.2569 84.0457C48.2494 84.9061 45.6684 85.3363 42.8005 85.3363C37.3516 85.3363 32.4763 83.7589 28.0312 80.6042C23.586 77.4494 20.1446 73.1474 17.5636 67.6982L0.5 75.4418C2.50748 81.1777 5.5187 86.1967 9.39028 90.3553C13.4052 94.5139 18.1371 97.8121 23.7294 100.106C29.1783 102.401 35.2008 103.548 41.3666 103.548C48.3928 103.548 54.702 102.257 60.0075 99.6763C65.313 97.0951 69.4713 93.5101 72.626 89.0647C75.6372 84.4759 77.2145 79.3136 77.2145 73.5776C77.2145 66.8378 75.207 61.1018 71.192 56.5131C67.1771 51.7809 61.1546 48.1959 53.1247 45.6147L33.9102 39.4485C30.899 38.4447 28.6048 37.1541 27.0274 35.2899C25.4501 33.5691 24.7332 31.5615 24.7332 29.1238C24.7332 26.9728 25.3068 25.1086 26.4539 23.3878C27.7444 21.8104 29.3217 20.5198 31.4726 19.516Z" fill="#0C0020"/>
<path d="M141.916 31.8432C136.037 28.545 129.441 26.8242 122.128 26.8242C114.815 26.8242 108.219 28.545 102.34 31.8432C96.3175 35.1414 91.5856 39.7302 88.0008 45.4662C84.416 51.2021 82.6953 57.7985 82.6953 65.2553C82.6953 72.5686 84.416 79.165 88.0008 85.0444C91.5856 90.7804 96.3175 95.3692 102.34 98.6673C108.362 101.966 114.958 103.686 122.128 103.686C129.441 103.686 136.037 101.966 141.916 98.6673C147.795 95.3692 152.527 90.7804 156.112 85.0444C159.697 79.3084 161.417 72.712 161.417 65.2553C161.417 57.7985 159.697 51.2021 156.112 45.4662C152.527 39.7302 147.795 35.1414 141.916 31.8432ZM138.188 75.7234C136.611 78.7348 134.46 81.1726 131.735 82.8934C129.011 84.6142 125.856 85.4746 122.128 85.4746C118.4 85.4746 115.245 84.6142 112.377 82.8934C109.653 81.1726 107.359 78.8782 105.781 75.7234C104.204 72.712 103.487 69.1271 103.487 65.2553C103.487 61.2401 104.204 57.7985 105.781 54.7871C107.359 51.7757 109.51 49.3379 112.377 47.6172C115.102 45.8964 118.4 45.036 122.128 45.036C125.856 45.036 129.011 45.8964 131.735 47.6172C134.46 49.3379 136.611 51.7757 138.188 54.7871C139.765 57.7985 140.482 61.2401 140.482 65.2553C140.482 69.1271 139.765 72.712 138.188 75.7234Z" fill="#0C0020"/>
<path d="M202.124 23.101C206.569 20.3764 211.875 18.9424 217.754 18.9424C223.92 18.9424 229.082 20.5198 233.24 23.6746C237.542 26.8294 240.553 30.8446 242.131 35.7201L260.628 26.8294C258.907 21.9538 256.04 17.365 252.025 13.3498C248.01 9.33463 243.134 6.03645 237.255 3.59866C231.52 1.16087 224.924 0.0136719 217.611 0.0136719C210.298 0.0136719 203.702 1.30426 197.536 3.88545C191.37 6.46664 186.064 10.0516 181.476 14.6404C176.887 19.2292 173.303 24.6784 170.865 31.1314C168.284 37.4409 167.137 44.3241 167.137 51.7809C167.137 59.2376 168.427 66.1208 171.008 72.4304C173.589 78.74 177.174 84.1891 181.763 88.9213C186.351 93.6535 191.657 97.2385 197.823 99.8197C203.988 102.401 210.584 103.691 217.754 103.691C225.067 103.691 231.52 102.544 237.399 100.106C243.134 97.6687 248.153 94.5139 252.168 90.3553C256.183 86.3401 259.051 81.8948 260.771 76.8758L242.274 67.985C240.553 72.8606 237.542 76.8758 233.384 80.0306C229.082 83.1853 223.92 84.7627 217.897 84.7627C212.018 84.7627 206.713 83.3288 202.268 80.6042C197.823 77.8796 194.238 74.0078 191.8 68.9888C189.362 64.1132 188.072 58.3772 188.072 51.7809C188.072 45.1845 189.362 39.4485 191.8 34.5729C194.094 29.6974 197.536 25.8256 202.124 23.101Z" fill="#0C0020"/>
<path d="M292.88 30.9857C290.012 32.7065 287.862 35.4311 286.284 39.4462V28.4045H267.5V101.968H287.718V62.3902C287.718 56.941 289.296 52.639 292.307 49.6276C295.318 46.6162 299.333 45.1822 304.352 45.1822H310.661V27.6875H306.359C300.91 27.6875 296.609 28.6913 292.88 30.9857Z" fill="#0C0020"/>
<path d="M374.603 37.2924C371.449 33.9942 367.721 31.413 363.275 29.5488C358.83 27.6846 353.668 26.8242 347.789 26.8242C340.763 26.8242 334.454 28.545 329.005 31.8432C323.413 35.1414 318.967 39.7302 315.813 45.4662C312.515 51.2021 310.938 57.7985 310.938 65.1119C310.938 72.1385 312.515 78.5914 315.669 84.4708C318.824 90.3502 323.269 94.939 329.005 98.3805C334.741 101.822 341.48 103.543 349.366 103.543C354.385 103.543 358.974 102.826 363.275 101.392C367.434 99.9579 371.162 97.8069 374.317 95.0824C377.471 92.3578 379.622 89.203 381.056 85.618L364.853 77.8744C363.419 80.4556 361.411 82.3198 358.83 83.7538C356.249 85.1878 353.238 85.9048 349.653 85.9048C345.638 85.9048 342.34 85.0444 339.616 83.3236C336.891 81.6028 334.74 79.165 333.45 76.0102C332.733 74.4328 332.303 72.5686 332.016 70.7044H383.494C383.78 69.7006 384.067 68.5535 384.211 67.1195C384.354 65.6855 384.354 64.2515 384.354 62.8175C384.354 57.6551 383.494 52.9229 381.916 48.6209C380.052 44.4624 377.758 40.734 374.603 37.2924ZM338.755 45.6095C341.337 43.8888 344.204 43.0283 347.789 43.0283C351.374 43.0283 354.385 43.8888 356.823 45.6095C359.26 47.3303 360.981 49.7681 361.985 52.7795C362.272 53.7833 362.558 54.9305 362.558 56.0777H332.303C332.59 55.0739 332.876 54.0701 333.163 53.0663C334.454 49.7681 336.318 47.3303 338.755 45.6095Z" fill="#0C0020"/>
<path d="M438.846 30.2806C434.114 27.9862 428.666 26.9824 422.356 26.9824C417.194 26.9824 412.319 27.8428 408.017 29.4202C403.572 30.9976 399.844 33.292 396.689 36.3034C393.535 39.3148 391.24 42.7564 389.806 46.915L406.01 54.6585C407.3 51.3603 409.308 48.7792 412.032 46.915C414.757 44.9074 417.911 43.9036 421.496 43.9036C425.224 43.9036 428.235 44.9074 430.386 46.7715C432.537 48.6357 433.684 50.9301 433.684 53.7981V55.8057L413.323 59.1039C407.444 59.9643 402.568 61.5417 398.697 63.6927C394.825 65.8437 391.957 68.5683 389.95 71.723C388.086 74.8778 387.082 78.6062 387.082 82.7648C387.082 87.2102 388.086 90.9386 390.237 94.0934C392.244 97.2482 395.255 99.686 399.127 101.407C402.998 103.128 407.587 103.988 412.893 103.988C416.907 103.988 420.492 103.414 423.647 102.411C426.945 101.407 429.813 99.8293 432.394 97.6784C433.254 96.9614 434.114 96.1009 434.975 95.3839V102.411H453.759V53.9415C453.759 48.6357 452.469 44.047 449.744 40.0318C447.307 35.5864 443.578 32.4316 438.846 30.2806ZM431.677 80.7572C430.243 83.195 428.379 85.2026 425.798 86.6366C423.217 88.0706 420.349 88.7876 417.051 88.7876C414.47 88.7876 412.462 88.214 410.742 86.9234C409.021 85.6328 408.161 83.912 408.161 81.6176C408.161 79.1798 408.878 77.3156 410.455 76.025C412.032 74.7344 414.183 73.874 417.051 73.3004L433.684 70.289V72.5835C433.684 75.5948 433.111 78.3194 431.677 80.7572Z" fill="#0C0020"/>
<path d="M490.627 11.7617H470.409V17.2109C470.409 20.9393 469.405 23.8073 467.397 25.6715C465.39 27.5357 462.522 28.5395 458.651 28.5395H457.934V46.0342H470.265V75.4311C470.265 84.035 472.703 90.7748 477.578 95.507C482.454 100.239 489.336 102.677 498.227 102.677C499.804 102.677 501.381 102.534 503.102 102.39C504.823 102.247 506.4 101.96 507.69 101.817V84.752C506.83 84.8954 505.97 84.8954 505.109 85.0388C504.249 85.1822 503.532 85.1822 502.959 85.1822C500.234 85.1822 497.796 84.752 495.932 84.035C494.068 83.1747 492.634 82.0274 491.774 80.3066C490.914 78.5859 490.484 76.5783 490.484 73.9971V45.8908H507.69V28.3961H490.484V11.7617H490.627Z" fill="#0C0020"/>
<path d="M527.061 21.8083C532.653 21.8083 537.098 17.2196 537.098 11.7704C537.098 6.1778 532.51 1.73242 527.061 1.73242C521.469 1.73242 517.023 6.3212 517.023 11.7704C517.023 17.363 521.612 21.8083 527.061 21.8083Z" fill="#0C0020"/>
<path d="M537.242 28.4043H517.023V101.968H537.242V28.4043Z" fill="#0C0020"/>
<path d="M594.716 28.4043L578.942 72.4279L563.026 28.4043H541.23L570.196 101.968H587.689L616.654 28.4043H594.716Z" fill="#0C0020"/>
<path d="M684.774 48.9225C683.197 44.6206 680.759 40.7488 677.748 37.4506C674.593 34.1524 670.865 31.5712 666.42 29.707C661.975 27.8428 656.813 26.9824 650.934 26.9824C643.907 26.9824 637.598 28.7032 632.149 32.0014C626.557 35.2996 622.112 39.8884 618.957 45.6243C615.659 51.3603 614.082 57.9567 614.082 65.2701C614.082 72.2966 615.659 78.7496 618.814 84.629C621.969 90.5084 626.414 95.0972 632.149 98.5387C637.885 101.98 644.624 103.701 652.511 103.701C657.53 103.701 662.118 102.984 666.42 101.55C670.578 100.116 674.307 97.9651 677.461 95.2406C680.616 92.516 682.767 89.3612 684.201 85.7762L667.997 78.0326C666.563 80.6138 664.556 82.478 661.975 83.912C659.394 85.346 656.383 86.063 652.798 86.063C648.783 86.063 645.485 85.2026 642.76 83.4818C640.036 81.761 637.885 79.3232 636.595 76.1684C635.878 74.591 635.447 72.7268 635.161 70.8627H686.638C686.925 69.8589 687.212 68.7117 687.355 67.2777C687.498 65.8437 687.499 64.4097 687.499 62.9757C687.068 57.9567 686.351 53.2245 684.774 48.9225ZM641.757 45.6243C644.338 43.9036 647.205 43.0432 650.79 43.0432C654.375 43.0432 657.386 43.9036 659.824 45.6243C662.262 47.3451 663.982 49.7829 664.986 52.7943C665.273 53.7981 665.56 54.9453 665.56 56.0925H635.161C635.447 55.0887 635.734 54.0849 636.021 53.0811C637.311 49.7829 639.319 47.3451 641.757 45.6243Z" fill="#0C0020"/>
</svg>
