<svg width="82" height="83" viewBox="0 0 82 83" fill="none" xmlns="http://www.w3.org/2000/svg">
<path d="M23.0076 60.3402C22.9494 60.123 22.835 59.925 22.676 59.766C22.517 59.607 22.319 59.4926 22.1018 59.4344L14.9562 57.5202C14.739 57.462 14.5102 57.462 14.2929 57.5203C14.0757 57.5785 13.8776 57.6929 13.7185 57.852L8.48848 63.0834C8.32961 63.2423 8.21532 63.4401 8.15708 63.6572C8.09883 63.8742 8.09868 64.1027 8.15664 64.3198L10.0708 71.4653C10.129 71.6825 10.2434 71.8806 10.4024 72.0396C10.5614 72.1986 10.7595 72.3129 10.9767 72.3712L18.1222 74.2853C18.23 74.3144 18.3411 74.329 18.4528 74.3289C18.7925 74.3288 19.1184 74.1938 19.3586 73.9535L24.59 68.7234C24.749 68.5644 24.8635 68.3663 24.9217 68.1491C24.98 67.9318 24.98 67.703 24.9218 67.4858L23.0076 60.3402ZM18.071 71.6152L12.354 70.0777L10.8229 64.3762L15.0075 60.1916L20.7231 61.7291L22.2606 67.4447L18.071 71.6152Z" fill="white"/>
<path d="M79.0529 61.3782L71.801 54.1264C71.6817 54.007 71.5398 53.9127 71.3836 53.8489C71.2274 53.7851 71.0601 53.7531 70.8913 53.7548C70.7245 53.7532 70.5591 53.7852 70.405 53.8491C70.2509 53.9129 70.1112 54.0072 69.9945 54.1264L69.1232 54.9976C67.5881 53.2286 66.6274 51.0345 66.3685 48.7067L65.446 40.481C65.1582 37.8774 63.9977 35.4479 62.1532 33.5879L61.8457 33.2804L63.4985 31.6148C63.6153 31.4921 63.7567 31.3955 63.9135 31.3315C64.0703 31.2674 64.2389 31.2373 64.4082 31.2432C66.7699 31.3897 69.1304 30.9382 71.2714 29.9306C73.4123 28.9229 75.2646 27.3916 76.6568 25.4782C78.049 23.5649 78.9362 21.3314 79.2363 18.9842C79.5364 16.6371 79.2398 14.2522 78.3738 12.0501C78.2974 11.8508 78.1724 11.6737 78.0102 11.535C77.848 11.3963 77.6536 11.3003 77.4449 11.2557C77.2361 11.2112 77.0195 11.2195 76.8148 11.2799C76.6101 11.3403 76.4237 11.4509 76.2726 11.6017L68.4313 19.4557L63.6651 18.7767L62.986 14.0104L70.8401 6.16917C70.9907 6.01929 71.1013 5.83402 71.1617 5.63032C71.2222 5.42661 71.2305 5.211 71.186 5.00323C71.1408 4.794 71.0447 4.59915 70.9061 4.43599C70.7675 4.27283 70.5908 4.1464 70.3916 4.06792C68.1896 3.20195 65.8046 2.90531 63.4575 3.20544C61.1104 3.50557 58.8769 4.39278 56.9635 5.78499C55.0502 7.1772 53.5189 9.02945 52.5112 11.1704C51.5035 13.3113 51.052 15.6718 51.1985 18.0335C51.2014 18.2024 51.1699 18.3701 51.106 18.5265C51.0422 18.6829 50.9472 18.8246 50.827 18.9432L45.5354 24.2348L41.9095 20.6089C41.2213 19.9132 40.3477 19.4302 39.3926 19.2173C38.4376 19.0045 37.4415 19.0709 36.5231 19.4085C35.6047 19.7461 34.8028 20.3408 34.2131 21.1216C33.6233 21.9024 33.2706 22.8363 33.197 23.812C32.2509 23.5639 31.2533 23.5941 30.324 23.8989C29.3946 24.2037 28.5729 24.7701 27.9575 25.5303C27.3421 26.2904 26.959 27.212 26.8543 28.1844C26.7496 29.1569 26.9277 30.1389 27.3673 31.0126C26.355 31.1837 25.42 31.6623 24.6895 32.3835C24.0593 33.017 23.6068 33.805 23.3774 34.6686C23.148 35.5322 23.1498 36.4409 23.3826 37.3035C22.4077 37.3698 21.4727 37.7163 20.69 38.3013C19.9074 38.8862 19.3103 39.6848 18.9706 40.601C18.6309 41.5172 18.5631 42.512 18.7753 43.4658C18.9875 44.4196 19.4706 45.2918 20.1666 45.9776L21.9732 47.7842L18.296 51.4614C18.1771 51.5847 18.0334 51.6816 17.8744 51.7457C17.7155 51.8097 17.5448 51.8394 17.3735 51.8329C17.0916 51.8201 16.8226 51.8201 16.5279 51.8073C14.6771 51.8065 12.8442 52.1702 11.134 52.8777C9.42371 53.5852 7.86955 54.6226 6.56023 55.9307C3.91594 58.5726 2.42943 62.1567 2.42774 65.8946C2.42604 69.6325 3.90928 73.218 6.55117 75.8623C9.19306 78.5066 12.7772 79.9931 16.5151 79.9948H16.5535C18.4035 79.9941 20.2353 79.629 21.9442 78.9204C23.6531 78.2117 25.2057 77.1733 26.5133 75.8646C27.8208 74.5558 28.8578 73.0023 29.5649 71.2927C30.272 69.5832 30.6355 67.7511 30.6345 65.901C30.6345 65.6192 30.6216 65.3373 30.6088 65.0682C30.6006 64.8968 30.6295 64.7255 30.6936 64.5663C30.7578 64.4071 30.8556 64.2636 30.9804 64.1457L34.6576 60.4685L49.1613 74.9595L48.2516 75.8692C48.1306 75.9878 48.0343 76.1293 47.9683 76.2855C47.9023 76.4417 47.868 76.6093 47.8673 76.7789C47.868 76.9465 47.9023 77.1123 47.9684 77.2663C48.0344 77.4204 48.1307 77.5596 48.2516 77.6757L50.0582 79.4951C50.3018 79.7321 50.628 79.8653 50.9679 79.8667C51.3073 79.863 51.6326 79.7301 51.8776 79.4951C52.1176 79.2532 52.2523 78.9262 52.2523 78.5854C52.2523 78.2446 52.1176 77.9176 51.8776 77.6757L50.9679 76.7789L70.8913 56.8426L77.2335 63.1848C77.4754 63.4248 77.8024 63.5595 78.1432 63.5595C78.484 63.5595 78.811 63.4248 79.0529 63.1848C79.2915 62.9447 79.4255 62.62 79.4255 62.2815C79.4255 61.943 79.2915 61.6183 79.0529 61.3782ZM52.6335 20.7498C53.0127 20.3782 53.3083 19.93 53.5005 19.435C53.6927 18.9401 53.7771 18.4099 53.7482 17.8798C53.6427 16.1211 53.942 14.3616 54.6229 12.7366C55.3038 11.1116 56.3483 9.66439 57.676 8.50619C59.0037 7.348 60.5793 6.50968 62.2817 6.05567C63.9841 5.60166 65.7679 5.54406 67.496 5.8873L60.731 12.6523C60.5891 12.7928 60.4817 12.9642 60.4172 13.1532C60.3528 13.3421 60.333 13.5435 60.3595 13.7414L61.2691 20.0835C61.3081 20.3586 61.4353 20.6136 61.6318 20.81C61.8282 21.0064 62.0831 21.1337 62.3582 21.1726L68.7004 22.0823C68.8983 22.1088 69.0996 22.089 69.2886 22.0245C69.4776 21.96 69.649 21.8526 69.7895 21.7107L76.5545 14.9457C76.8977 16.6739 76.8401 18.4577 76.3861 20.1601C75.9321 21.8624 75.0938 23.4381 73.9356 24.7658C72.7774 26.0935 71.3301 27.1379 69.7052 27.8189C68.0802 28.4998 66.3207 28.799 64.562 28.6935C64.0319 28.6657 63.502 28.7506 63.0073 28.9428C62.5125 29.1349 62.0642 29.4299 61.692 29.8082L60.0263 31.4739L56.4004 27.8479C55.4233 26.9158 54.1248 26.3958 52.7745 26.3958C51.4241 26.3958 50.1256 26.9158 49.1485 27.8479L47.342 26.0414L52.6335 20.7498ZM36.4641 22.4154C36.9543 21.9526 37.6029 21.6947 38.2771 21.6947C38.9513 21.6947 39.5999 21.9526 40.0901 22.4154L47.342 29.6673L43.716 33.2932L36.4641 26.0414C35.987 25.5586 35.7194 24.9072 35.7194 24.2284C35.7194 23.5496 35.987 22.8982 36.4641 22.4154ZM30.122 26.951C30.6091 26.4824 31.2589 26.2206 31.9349 26.2206C32.6109 26.2206 33.2607 26.4824 33.7479 26.951L41.9095 35.0998L42.0632 35.292C41.8228 35.7985 41.6981 36.3521 41.6981 36.9128C41.6981 37.4734 41.8228 38.0271 42.0632 38.5335L41.9095 38.7257C41.4193 39.1886 40.7707 39.4464 40.0965 39.4464C39.4223 39.4464 38.7737 39.1886 38.2835 38.7257L35.106 35.5482L30.122 30.5642C29.8844 30.3271 29.6959 30.0455 29.5673 29.7355C29.4388 29.4255 29.3726 29.0932 29.3726 28.7576C29.3726 28.422 29.4388 28.0897 29.5673 27.7797C29.6959 27.4697 29.8844 27.1881 30.122 26.951ZM26.5088 34.1901C26.9889 33.7128 27.6384 33.445 28.3154 33.445C28.9924 33.445 29.6418 33.7128 30.122 34.1901L33.2995 37.3676L36.4641 40.5323H36.477L38.2835 42.3517C38.5216 42.5898 38.7105 42.8724 38.8393 43.1835C38.9682 43.4945 39.0345 43.8279 39.0345 44.1646C39.0345 44.5013 38.9682 44.8347 38.8393 45.1458C38.7105 45.4569 38.5216 45.7395 38.2835 45.9776C38.0454 46.2157 37.7628 46.4045 37.4517 46.5334C37.1407 46.6622 36.8072 46.7286 36.4706 46.7286C36.1339 46.7286 35.8004 46.6622 35.4894 46.5334C35.1783 46.4045 34.8957 46.2157 34.6576 45.9776L27.4057 38.7257L26.5088 37.816C26.2706 37.5781 26.0816 37.2954 25.9526 36.9844C25.8237 36.6733 25.7573 36.3398 25.7573 36.0031C25.7573 35.6663 25.8237 35.3329 25.9526 35.0218C26.0816 34.7107 26.2706 34.4281 26.5088 34.1901ZM21.2173 42.3517C21.2162 42.0134 21.2825 41.6783 21.4123 41.366C21.5421 41.0536 21.7328 40.7702 21.9732 40.5323C22.4549 40.0577 23.1035 39.7908 23.7798 39.7892C24.1172 39.7858 24.4519 39.8498 24.7643 39.9774C25.0767 40.105 25.3605 40.2937 25.5991 40.5323L32.851 47.7842L33.7479 48.6939C34.2287 49.1747 34.4989 49.8268 34.4989 50.5068C34.4989 51.1868 34.2287 51.839 33.7479 52.3198C33.2671 52.8006 32.6149 53.0708 31.9349 53.0708C31.2549 53.0708 30.6028 52.8006 30.122 52.3198L21.9732 44.1582C21.734 43.9221 21.5439 43.6408 21.4142 43.3307C21.2844 43.0206 21.2175 42.6878 21.2173 42.3517ZM50.9679 73.1529L36.4641 58.662L50.0582 45.0679C50.2982 44.826 50.4329 44.499 50.4329 44.1582C50.4329 43.8174 50.2982 43.4905 50.0582 43.2485C49.8181 43.0099 49.4934 42.876 49.1549 42.876C48.8164 42.876 48.4917 43.0099 48.2516 43.2485L29.161 62.3392C28.7833 62.7119 28.4887 63.1603 28.2966 63.6549C28.1045 64.1495 28.0192 64.6792 28.0463 65.2092C28.0591 65.4398 28.072 65.6704 28.072 65.901C28.072 68.9571 26.8588 71.8882 24.6991 74.0503C22.5393 76.2125 19.6096 77.4289 16.5535 77.4323H16.5151C13.4568 77.4306 10.5245 76.2141 8.36313 74.0503C6.2018 71.8866 4.98854 68.9529 4.99024 65.8946C4.99194 62.8364 6.20846 59.904 8.37219 57.7427C10.5359 55.5814 13.4696 54.3681 16.5279 54.3698C16.7201 54.3698 17.002 54.3826 17.2326 54.3954C17.7622 54.4196 18.291 54.3329 18.7852 54.141C19.2794 53.949 19.7281 53.656 20.1026 53.2807L23.7798 49.5907L28.3154 54.1264C29.1065 54.9227 30.1379 55.4364 31.2501 55.5881C32.3624 55.7397 33.4936 55.5209 34.469 54.9654C35.4445 54.4098 36.2098 53.5486 36.6469 52.5146C37.0839 51.4806 37.1683 50.3315 36.887 49.2448C37.7155 49.1839 38.5165 48.9203 39.2194 48.4773C39.9223 48.0344 40.5056 47.4255 40.9181 46.7043C41.3305 45.9831 41.5596 45.1716 41.585 44.3412C41.6104 43.5107 41.4314 42.6868 41.0638 41.9417C42.071 41.7535 42.9964 41.2617 43.716 40.5323C43.7545 40.5067 43.7673 40.4682 43.8057 40.4426C45.0391 41.2557 46.515 41.6194 47.985 41.4724C49.455 41.3254 50.8296 40.6767 51.8776 39.6354C52.1199 39.4011 52.4438 39.27 52.7809 39.27C53.118 39.27 53.4419 39.4011 53.6841 39.6354C53.8033 39.7522 53.8976 39.8918 53.9614 40.046C54.0253 40.2001 54.0573 40.3655 54.0557 40.5323C54.0574 40.701 54.0254 40.8684 53.9616 41.0246C53.8978 41.1808 53.8035 41.3227 53.6841 41.442L52.7745 42.3517C51.0945 44.0348 50.151 46.3158 50.151 48.6939C50.151 51.072 51.0945 53.3529 52.7745 55.036L53.6841 55.9329C53.8011 56.0545 53.9413 56.1513 54.0965 56.2174C54.2518 56.2834 54.4187 56.3175 54.5874 56.3175C54.7561 56.3175 54.9231 56.2834 55.0783 56.2174C55.2335 56.1513 55.3738 56.0545 55.4907 55.9329C55.7293 55.6929 55.8633 55.3681 55.8633 55.0296C55.8633 54.6912 55.7293 54.3664 55.4907 54.1264L54.5938 53.2167C53.3928 52.0153 52.7182 50.3862 52.7182 48.6875C52.7182 46.9887 53.3928 45.3596 54.5938 44.1582L55.4907 43.2485C55.848 42.8922 56.1315 42.4688 56.325 42.0027C56.5184 41.5366 56.618 41.0369 56.618 40.5323C56.618 40.0276 56.5184 39.528 56.325 39.0619C56.1315 38.5957 55.848 38.1724 55.4907 37.816C54.7582 37.1189 53.7857 36.73 52.7745 36.73C51.7632 36.73 50.7907 37.1189 50.0582 37.816C49.3375 38.5359 48.3605 38.9402 47.342 38.9402C46.3234 38.9402 45.3464 38.5359 44.6257 37.816C44.3871 37.576 44.2531 37.2513 44.2531 36.9128C44.2531 36.5743 44.3871 36.2495 44.6257 36.0095L50.9679 29.6673C51.4551 29.1986 52.1048 28.9368 52.7809 28.9368C53.4569 28.9368 54.1066 29.1986 54.5938 29.6673L60.3338 35.3945C61.7676 36.8462 62.6742 38.7361 62.9091 40.7629L63.8316 48.9885C64.1546 51.8897 65.3675 54.6198 67.3038 56.8042L50.9679 73.1529Z" fill="white"/>
</svg>
