<svg width="21" height="21" viewBox="0 0 21 21" fill="none" xmlns="http://www.w3.org/2000/svg">
<path d="M17.2972 17.8906C17.2434 17.9886 17.1642 18.0704 17.068 18.1275C16.9719 18.1845 16.8621 18.2147 16.7503 18.2148H13.0003C12.8951 18.2148 12.7916 18.1882 12.6995 18.1376C12.6073 18.0869 12.5294 18.0138 12.473 17.925L9.30968 12.9539L4.7128 18.0102C4.60074 18.1305 4.44575 18.2019 4.28143 18.2088C4.11711 18.2156 3.95671 18.1574 3.835 18.0468C3.71329 17.9362 3.64008 17.7821 3.63125 17.6179C3.62241 17.4536 3.67866 17.2926 3.7878 17.1695L8.61358 11.857L3.72296 4.17578C3.66273 4.08128 3.62901 3.97233 3.62534 3.86033C3.62166 3.74833 3.64817 3.6374 3.70208 3.53916C3.756 3.44092 3.83533 3.35898 3.93178 3.30192C4.02823 3.24487 4.13824 3.21479 4.2503 3.21484H8.0003C8.10549 3.21488 8.20897 3.24146 8.30115 3.29212C8.39334 3.34279 8.47124 3.4159 8.52765 3.50469L11.6909 8.47578L16.2878 3.41953C16.3999 3.29916 16.5549 3.2278 16.7192 3.22093C16.8835 3.21407 17.0439 3.27225 17.1656 3.38286C17.2873 3.49347 17.3605 3.64759 17.3694 3.81181C17.3782 3.97604 17.3219 4.13713 17.2128 4.26016L12.387 9.56875L17.2776 17.2547C17.3375 17.3492 17.371 17.4581 17.3744 17.57C17.3778 17.6818 17.3512 17.7926 17.2972 17.8906Z" fill="black"/>
</svg>
