<svg width="24" height="25" viewBox="0 0 24 25" fill="none" xmlns="http://www.w3.org/2000/svg">
<g id="XLogo">
<path id="Vector" d="M20.1566 21.3668C20.092 21.4844 19.9971 21.5826 19.8817 21.651C19.7662 21.7194 19.6346 21.7556 19.5004 21.7559H15.0004C14.8741 21.7558 14.75 21.7239 14.6393 21.6631C14.5287 21.6023 14.4352 21.5146 14.3676 21.408L10.5716 15.4427L5.05536 21.5102C4.92089 21.6547 4.7349 21.7403 4.53772 21.7486C4.34054 21.7568 4.14805 21.687 4.002 21.5542C3.85595 21.4215 3.7681 21.2366 3.7575 21.0395C3.74689 20.8424 3.81439 20.6491 3.94536 20.5015L9.7363 14.1265L3.86755 4.90898C3.79527 4.79559 3.75481 4.66484 3.7504 4.53044C3.746 4.39604 3.7778 4.26293 3.8425 4.14504C3.90719 4.02715 4.0024 3.92882 4.11813 3.86035C4.23387 3.79189 4.36589 3.75579 4.50036 3.75586H9.00036C9.12659 3.7559 9.25077 3.7878 9.36139 3.84859C9.472 3.90939 9.56549 3.99713 9.63318 4.10367L13.4291 10.069L18.9454 4.00148C19.0798 3.85703 19.2658 3.77141 19.463 3.76317C19.6602 3.75493 19.8527 3.82474 19.9987 3.95747C20.1448 4.0902 20.2326 4.27515 20.2432 4.47222C20.2538 4.66929 20.1863 4.8626 20.0554 5.01023L14.2644 11.3805L20.1332 20.6037C20.2051 20.7171 20.2451 20.8478 20.2493 20.982C20.2534 21.1163 20.2214 21.2492 20.1566 21.3668Z" fill="black"/>
</g>
</svg>
